<?xml version="1.0" encoding="UTF-8" standalone="no"?>
<svg
   xmlns:dc="http://purl.org/dc/elements/1.1/"
   xmlns:cc="http://creativecommons.org/ns#"
   xmlns:rdf="http://www.w3.org/1999/02/22-rdf-syntax-ns#"
   xmlns:svg="http://www.w3.org/2000/svg"
   xmlns="http://www.w3.org/2000/svg"
   xmlns:sodipodi="http://sodipodi.sourceforge.net/DTD/sodipodi-0.dtd"
   xmlns:inkscape="http://www.inkscape.org/namespaces/inkscape"
   version="1.0"
   width="1270.4843pt"
   height="1509.8577pt"
   viewBox="0 0 1270.4842 1509.8576"
   preserveAspectRatio="xMidYMid meet"
   id="svg895"
   sodipodi:docname="computer.svg"
   inkscape:version="0.92.4 5da689c313, 2019-01-14">
  <defs
     id="defs899" />
  <sodipodi:namedview
     pagecolor="#ffffff"
     bordercolor="#666666"
     borderopacity="1"
     objecttolerance="10"
     gridtolerance="10"
     guidetolerance="10"
     inkscape:pageopacity="0"
     inkscape:pageshadow="2"
     inkscape:window-width="814"
     inkscape:window-height="423"
     id="namedview897"
     showgrid="false"
     fit-margin-top="0"
     fit-margin-left="0"
     fit-margin-right="0"
     fit-margin-bottom="0"
     inkscape:zoom="0.326852"
     inkscape:cx="862.28695"
     inkscape:cy="1006.5718"
     inkscape:window-x="162"
     inkscape:window-y="245"
     inkscape:window-maximized="0"
     inkscape:current-layer="svg895" />
  <metadata
     id="metadata885">
Created by potrace 1.15, written by Peter Selinger 2001-2017
<rdf:RDF>
  <cc:Work
     rdf:about="">
    <dc:format>image/svg+xml</dc:format>
    <dc:type
       rdf:resource="http://purl.org/dc/dcmitype/StillImage" />
    <dc:title />
  </cc:Work>
</rdf:RDF>
</metadata>
  <g
     transform="matrix(0.1,0,0,-0.14439839,-9.3370999,1510.146)"
     id="g893"
     style="fill:#ff5e15;stroke:none;fill-opacity:1">
    <path
       d="m 8810,10451 c 0,-5 -34,-206 -75,-447 -286,-1663 -265,-1529 -254,-1612 6,-50 9,-949 7,-2572 l -3,-2495 -106,-285 c -59,-157 -123,-336 -144,-398 -35,-105 -36,-114 -22,-136 31,-46 87,-55 421,-68 373,-14 2195,-14 3216,0 l 695,10 27,-31 c 15,-18 40,-49 54,-69 l 26,-37 -23,-38 c -94,-157 -253,-260 -497,-322 -115,-30 -244,-48 -472,-66 -353,-28 -558,-78 -845,-206 -162,-73 -382,-199 -413,-238 -7,-8 -40,-21 -73,-28 -86,-17 -146,-49 -207,-110 -66,-65 -99,-137 -112,-239 -14,-115 -23,-138 -75,-197 -95,-108 -139,-247 -118,-371 28,-167 168,-349 328,-429 173,-86 394,-87 573,-1 62,30 96,56 173,133 61,61 107,116 124,151 96,189 64,378 -88,535 -65,66 -77,89 -77,142 0,51 -28,152 -55,199 -38,65 -127,140 -195,165 -33,12 -60,23 -60,25 0,2 15,7 33,13 17,5 77,23 132,39 303,92 567,135 930,152 511,24 737,61 920,150 106,51 166,105 205,184 51,103 51,204 -1,313 -20,42 -20,42 0,106 31,103 45,219 37,336 -14,236 -96,456 -308,821 -200,346 -235,449 -268,790 -6,63 -13,131 -17,150 -3,19 -8,948 -12,2065 l -6,2030 -327,945 -326,945 -1361,3 c -787,1 -1361,-2 -1361,-7 z m 3415,-6581 c 24,-73 86,-196 179,-355 155,-263 241,-450 281,-609 21,-86 43,-237 32,-226 -3,3 -23,48 -45,100 -22,52 -139,319 -261,593 -190,429 -221,504 -220,545 0,51 3,47 34,-48 z m 469,-1438 c -8,-38 -16,-40 -38,-8 -15,24 -14,25 12,34 15,5 28,8 30,7 1,-1 -1,-16 -4,-33 z m 22,-299 c 16,-154 -82,-285 -263,-353 -178,-67 -350,-89 -908,-120 -278,-16 -478,-47 -744,-115 -74,-19 -136,-33 -138,-32 -5,6 226,114 322,150 220,84 391,120 680,142 428,33 653,91 831,213 60,40 145,124 179,175 23,36 33,22 41,-60 z"
       id="path887"
       inkscape:connector-curvature="0"
       style="fill:#ff5e15;fill-opacity:1" />
    <path
       d="m 665,9227 c -44,-35 -86,-76 -93,-91 -9,-21 -12,-537 -12,-2407 0,-2034 2,-2385 14,-2414 29,-69 -46,-65 1190,-65 1068,0 1121,-1 1258,-20 311,-45 556,-101 643,-148 l 50,-27 3,-105 3,-105 -520,3 c -299,1 -529,-2 -543,-7 -17,-6 -32,-28 -52,-78 -15,-37 -32,-76 -37,-85 -15,-30 -11,-135 7,-152 14,-14 191,-16 1798,-16 1715,0 1784,1 1799,18 23,25 23,124 1,146 -13,14 -13,16 -1,16 25,0 -42,140 -72,151 -13,5 -269,8 -582,7 l -560,-3 3,105 3,104 34,23 c 75,51 286,103 591,148 l 175,25 h 1172 c 737,0 1181,4 1197,10 14,5 35,24 46,42 20,33 20,52 20,2423 0,1877 -3,2395 -13,2414 -6,14 -48,53 -92,87 l -80,63 H 4380 l -3635,1 z"
       id="path889"
       inkscape:connector-curvature="0"
       style="fill:#ff5e15;fill-opacity:1" />
    <path
       d="m 8250,4140 c -184,-185 -211,-206 -421,-341 -245,-158 -339,-231 -465,-362 -116,-121 -157,-149 -274,-185 -120,-36 -232,-47 -490,-46 -263,0 -380,8 -815,55 -408,45 -517,35 -667,-55 l -55,-33 -129,10 c -194,15 -1116,14 -1329,-1 -301,-21 -645,-51 -1185,-102 -836,-80 -1150,-102 -1605,-115 -116,-4 -218,-8 -227,-11 -21,-6 -19,1 -132,-434 -52,-201 -154,-591 -226,-868 -72,-276 -128,-507 -124,-513 3,-6 16,-14 28,-19 21,-9 21,-9 -2,-9 -35,-1 -50,-43 -29,-85 39,-84 293,-149 802,-205 1430,-160 4567,-155 6380,9 552,51 1086,136 1162,186 41,26 26,93 -22,95 -19,0 -19,1 3,9 30,13 29,33 -14,197 -36,137 -60,227 -294,1133 -70,269 -130,482 -139,492 -14,14 -61,18 -348,27 -182,6 -421,18 -530,26 -247,18 -683,55 -703,58 -8,2 129,6 305,9 428,8 500,20 705,118 142,67 226,98 541,199 194,61 449,182 449,211 0,11 -2,20 -5,20 -3,0 -79,-36 -168,-79 -116,-57 -217,-97 -357,-141 -261,-82 -392,-132 -522,-195 -61,-31 -140,-60 -181,-69 -246,-53 -947,-47 -1701,16 -300,24 -310,28 -186,66 76,23 211,20 505,-11 132,-15 296,-32 365,-39 71,-7 258,-13 430,-13 337,0 431,10 582,65 101,37 119,50 273,205 134,135 161,155 485,367 171,112 196,132 333,271 146,149 148,151 145,191 l -3,41 z"
       id="path891"
       inkscape:connector-curvature="0"
       style="fill:#ff5e15;fill-opacity:1" />
  </g>
</svg>
