<?xml version="1.0" encoding="UTF-8" standalone="no"?>
<svg
   xmlns:dc="http://purl.org/dc/elements/1.1/"
   xmlns:cc="http://creativecommons.org/ns#"
   xmlns:rdf="http://www.w3.org/1999/02/22-rdf-syntax-ns#"
   xmlns:svg="http://www.w3.org/2000/svg"
   xmlns="http://www.w3.org/2000/svg"
   xmlns:sodipodi="http://sodipodi.sourceforge.net/DTD/sodipodi-0.dtd"
   xmlns:inkscape="http://www.inkscape.org/namespaces/inkscape"
   viewBox="0 0 400 400"
   version="1.1"
   id="svg8"
   sodipodi:docname="describing.svg"
   width="400"
   height="400"
   inkscape:version="0.92.4 5da689c313, 2019-01-14">
  <metadata
     id="metadata14">
    <rdf:RDF>
      <cc:Work
         rdf:about="">
        <dc:format>image/svg+xml</dc:format>
        <dc:type
           rdf:resource="http://purl.org/dc/dcmitype/StillImage" />
        <dc:title></dc:title>
      </cc:Work>
    </rdf:RDF>
  </metadata>
  <defs
     id="defs12" />
  <sodipodi:namedview
     pagecolor="#ffffff"
     bordercolor="#666666"
     borderopacity="1"
     objecttolerance="10"
     gridtolerance="10"
     guidetolerance="10"
     inkscape:pageopacity="0"
     inkscape:pageshadow="2"
     inkscape:window-width="1533"
     inkscape:window-height="845"
     id="namedview10"
     showgrid="false"
     fit-margin-top="0"
     fit-margin-left="0"
     fit-margin-right="0"
     fit-margin-bottom="0"
     inkscape:zoom="0.4609375"
     inkscape:cx="256"
     inkscape:cy="256"
     inkscape:window-x="67"
     inkscape:window-y="27"
     inkscape:window-maximized="1"
     inkscape:current-layer="svg8" />
  <path
     d="M 2.1509995e-7,-112 H 512 V 400 H 2.1509995e-7 Z"
     id="path2"
     inkscape:connector-curvature="0"
     style="fill:#7c2828;fill-opacity:0" />
  <g
     class=""
     transform="matrix(0.84813318,0,0,0.85652649,-15.531828,-16.566522)"
     id="g6">
    <path
       d="m 68.906,19.344 c -2.614,0.03 -5.178,0.298 -7.687,0.75 C 49.235,20.75 38.59,25.42 30.812,33.5 21.155,43.53 16.542,58.27 18.937,74.094 c 0.012,0.084 0.05,0.165 0.062,0.25 0.708,13.018 6.502,26.876 19.53,39.906 l 86.126,86.125 c 30.255,2.728 53.004,26.627 53.906,57.5 l 0.157,5.625 c 0.8,5.8 4.26,10.397 8.874,12.78 5.734,2.965 12.387,3.148 19.625,-4.092 l 64.436,-64.407 c 7.72,-7.718 6.865,-12.713 3.5,-18.155 -3.365,-5.442 -11.242,-10.094 -18.78,-10.094 h -0.405 c -30.125,-1.296 -53.427,-23.484 -56.5,-53 L 112.873,39.939 C 97.59,24.652 82.44,19.183 68.905,19.345 Z M 65,38.187 c 5.44,0.03 11.493,1.387 17.97,4.47 l 92.968,92.968 -13.22,13.22 L 54,40.124 c 3.284,-1.25 6.967,-1.96 11,-1.938 z M 38.344,56.47 146.75,164.843 133.53,178.063 43.125,87.655 C 39.97,81.813 38.159,76.289 37.405,71.311 36.555,65.691 36.98,60.734 38.345,56.468 Z m 414.876,113.217 1.842,18.593 -34.593,-17.81 c -11.45,2.664 -21.948,7.76 -29.408,14.624 -7.198,6.625 -11.776,14.544 -12.687,24.594 l 111.563,-13.532 c -3.744,-9.308 -10.448,-15.842 -19.25,-20.53 -5.2,-2.77 -11.146,-4.75 -17.47,-5.94 z m 5.592,49.062 -43.343,5.28 c 1.224,13.065 2.98,26.084 5.28,38.94 l 40.063,-29.22 c -0.582,-5.014 -1.26,-10.008 -2,-15 z m -188.25,16.563 -36.812,36.75 16.625,16.625 36.813,-36.75 -16.625,-16.625 z m 192.25,20.093 -37.968,27.72 c 2.35,10.382 5.055,20.63 8.125,30.655 l 30.81,-22.467 c 0.176,-11.902 -0.154,-23.9 -0.967,-35.907 z m -173.968,21.28 -12.75,12.752 112.312,112.313 3.313,3.313 -0.69,4.625 -4.342,29.968 73,46.688 26.093,-26.094 -46.686,-72.97 -30,4.345 -4.625,0.688 L 401.155,389 288.843,276.687 Z m 173.906,38.505 -23.563,17.187 c 4.596,12.718 9.778,25.015 15.594,36.75 3.98,-17.394 6.615,-35.487 7.97,-53.938 z m -326.25,4.28 c -7.316,0.176 -14.165,2.543 -20.72,6.5 -7.282,4.4 -13.982,10.982 -19.436,18.782 l 3.25,37.188 -16.53,-5.032 c -1.325,7.755 -1.367,15.408 0.06,22.25 2.003,9.588 6.414,17.628 14.595,23.563 l 45.56,-102.75 c -1.796,-0.284 -3.57,-0.473 -5.31,-0.5 -0.493,-0.01 -0.982,-0.013 -1.47,0 z m 10.25,38.782 -17.688,39.938 c 11.83,5.634 23.894,10.798 36.094,15.406 l -4.562,-49.375 c -4.585,-2.063 -9.196,-4.053 -13.844,-5.97 z m 33.5,15.344 4.344,46.844 c 10.115,3.3 20.29,6.216 30.47,8.718 l -3.5,-37.97 c -10.13,-6.25 -20.59,-12.137 -31.314,-17.592 z m 51.313,30.72 2.687,29.03 c 13.26,2.568 26.457,4.417 39.5,5.437 -12.892,-12.322 -27.05,-23.852 -42.188,-34.467 z"
       id="path4"
       inkscape:connector-curvature="0"
       style="fill:#000000;fill-opacity:1" />
  </g>
</svg>
