<?xml version="1.0" encoding="UTF-8" standalone="no"?>
<svg
   xmlns:dc="http://purl.org/dc/elements/1.1/"
   xmlns:cc="http://creativecommons.org/ns#"
   xmlns:rdf="http://www.w3.org/1999/02/22-rdf-syntax-ns#"
   xmlns:svg="http://www.w3.org/2000/svg"
   xmlns="http://www.w3.org/2000/svg"
   xmlns:sodipodi="http://sodipodi.sourceforge.net/DTD/sodipodi-0.dtd"
   xmlns:inkscape="http://www.inkscape.org/namespaces/inkscape"
   version="1.0"
   width="225pt"
   height="225.00006pt"
   viewBox="0 0 225 225.00006"
   preserveAspectRatio="xMidYMid meet"
   id="svg8"
   sodipodi:docname="formal-verification.svg"
   inkscape:version="0.92.4 5da689c313, 2019-01-14">
  <defs
     id="defs12" />
  <sodipodi:namedview
     pagecolor="#ffffff"
     bordercolor="#666666"
     borderopacity="1"
     objecttolerance="10"
     gridtolerance="10"
     guidetolerance="10"
     inkscape:pageopacity="0"
     inkscape:pageshadow="2"
     inkscape:window-width="1533"
     inkscape:window-height="845"
     id="namedview10"
     showgrid="false"
     inkscape:zoom="2.1933327"
     inkscape:cx="150.00001"
     inkscape:cy="150.00004"
     inkscape:window-x="67"
     inkscape:window-y="27"
     inkscape:window-maximized="1"
     inkscape:current-layer="g12"
     fit-margin-top="0"
     fit-margin-left="0"
     fit-margin-right="0"
     fit-margin-bottom="0" />
  <metadata
     id="metadata2">
Created by potrace 1.15, written by Peter Selinger 2001-2017
<rdf:RDF>
  <cc:Work
     rdf:about="">
    <dc:format>image/svg+xml</dc:format>
    <dc:type
       rdf:resource="http://purl.org/dc/dcmitype/StillImage" />
    <dc:title></dc:title>
  </cc:Work>
</rdf:RDF>
</metadata>
  <g
     transform="matrix(0.01757953,0,0,-0.01757813,0,225.00006)"
     id="g6"
     style="fill:#000000;stroke:none">
    <path
       d="m 3297,12790 c -105,-27 -197,-105 -245,-208 l -27,-57 -3,-517 -3,-518 h -22 c -33,0 -241,-57 -337,-92 -577,-210 -1051,-683 -1259,-1258 -35,-97 -91,-304 -91,-337 v -22 l -518,-3 -517,-3 -67,-33 C 49,9664 -30,9498 14,9335 42,9228 101,9155 198,9108 l 67,-33 502,-3 503,-3 V 8920 8770 H 788 c -535,0 -538,-1 -635,-65 -228,-151 -190,-497 67,-619 44,-20 59,-21 548,-24 l 502,-3 v -149 -149 l -502,-3 -503,-3 -57,-27 C 135,7694 66,7624 32,7552 10,7504 5,7481 6,7410 c 0,-72 4,-94 28,-147 35,-76 103,-144 184,-181 l 57,-27 497,-3 498,-3 v -144 -144 l -492,-3 C 291,6755 284,6754 228,6732 148,6700 78,6633 38,6552 8,6492 5,6477 5,6400 c 1,-70 5,-95 27,-142 35,-75 94,-138 165,-174 l 58,-29 507,-3 508,-3 v -149 -149 l -497,-3 -498,-3 -63,-29 C 90,5660 0,5523 0,5397 c 0,-50 20,-129 44,-176 28,-52 102,-120 164,-149 l 57,-27 503,-3 502,-3 V 4890 4740 H 793 c -289,0 -496,-5 -523,-11 -111,-25 -215,-125 -251,-240 -24,-78 -24,-131 1,-210 31,-99 99,-175 200,-223 44,-20 59,-21 548,-24 l 502,-3 v -149 -149 l -502,-3 -503,-3 -56,-26 C 130,3662 76,3609 38,3532 9,3472 5,3456 5,3380 c 0,-76 4,-93 33,-152 40,-81 110,-148 190,-180 57,-23 61,-23 569,-26 l 513,-3 v -22 c 0,-33 56,-241 92,-337 210,-577 683,-1051 1258,-1259 98,-35 304,-91 338,-91 h 22 V 832 c 0,-301 4,-500 11,-538 21,-116 96,-210 207,-262 48,-23 70,-27 142,-27 70,1 94,5 140,27 77,36 131,86 171,160 l 34,63 3,508 3,507 h 149 150 V 793 c 0,-523 2,-543 59,-631 58,-91 188,-162 296,-162 59,0 162,34 208,69 48,36 94,94 121,151 20,44 21,59 24,548 l 3,502 h 149 149 l 3,-502 3,-503 27,-57 c 34,-73 98,-137 174,-173 51,-25 71,-29 144,-29 72,-1 94,4 145,27 78,36 146,104 182,181 l 28,61 3,498 3,497 h 149 149 l 3,-508 c 3,-500 3,-508 25,-553 36,-74 97,-135 171,-171 60,-30 76,-33 152,-33 76,0 93,4 152,33 81,40 148,110 180,190 22,56 23,63 26,549 l 3,493 h 145 144 V 803 c 0,-505 3,-541 53,-626 142,-241 496,-230 619,21 l 33,67 3,502 3,503 h 149 150 V 790 c 0,-467 1,-481 22,-547 18,-57 32,-79 88,-134 57,-58 75,-70 134,-88 81,-25 134,-26 207,-5 103,29 186,104 235,209 18,37 19,77 22,543 l 3,502 h 149 149 l 3,-502 3,-503 27,-57 c 34,-73 98,-137 174,-173 51,-25 71,-29 144,-29 72,-1 94,4 145,27 78,36 146,104 182,181 l 28,61 3,518 3,517 h 22 c 33,0 240,56 337,91 575,208 1048,682 1258,1259 36,97 92,304 92,338 v 22 h 478 c 301,0 500,4 538,11 116,21 210,96 262,207 23,48 27,70 27,142 -1,70 -5,94 -27,140 -38,81 -89,134 -166,172 l -67,33 -502,3 -503,3 v 149 150 h 478 c 526,0 546,2 631,61 67,46 118,114 141,188 25,80 25,132 0,212 -31,99 -99,175 -200,223 -44,20 -59,21 -547,24 l -503,3 v 149 149 l 503,3 502,3 57,27 c 73,34 137,98 173,174 25,51 29,71 29,144 1,72 -4,94 -27,145 -36,78 -104,146 -181,182 l -61,28 -497,3 -498,3 v 149 149 l 508,3 c 500,3 508,3 553,25 74,36 135,97 171,171 30,60 33,76 33,152 0,76 -4,93 -33,152 -40,81 -110,148 -190,180 -56,22 -63,23 -549,26 l -493,3 v 145 144 h 468 c 504,0 540,3 625,53 241,142 230,496 -21,619 l -67,33 -502,3 -503,3 v 149 150 h 480 c 467,0 481,1 547,22 57,18 79,32 134,88 58,57 70,75 88,134 25,80 26,131 6,205 -30,116 -144,226 -255,250 -33,7 -222,11 -525,11 h -475 v 150 149 l 503,3 502,3 57,27 c 73,34 137,98 173,174 25,51 29,71 29,144 1,72 -4,94 -27,145 -36,78 -104,146 -181,182 l -61,28 -517,3 -518,3 v 22 c 0,33 -56,241 -92,337 -210,577 -683,1051 -1258,1259 -97,35 -304,91 -337,91 h -22 l -3,518 -3,517 -33,67 c -133,270 -503,276 -634,10 l -33,-67 -3,-502 -3,-503 h -149 -150 v 483 c 0,529 -1,535 -61,628 -57,89 -186,159 -294,159 -59,0 -162,-34 -208,-69 -48,-36 -94,-94 -121,-151 -20,-44 -21,-59 -24,-547 l -3,-503 h -149 -149 l -3,503 -3,502 -27,57 c -34,73 -98,137 -174,173 -51,25 -71,29 -144,29 -72,1 -94,-4 -145,-27 -78,-36 -146,-104 -182,-181 l -28,-61 -3,-497 -3,-498 h -147 -147 v 493 c 0,489 0,492 -23,549 -32,80 -99,150 -180,190 -60,30 -75,33 -152,33 -70,-1 -95,-5 -142,-27 -75,-35 -138,-94 -174,-165 l -29,-58 -3,-507 -3,-508 h -149 -150 v 468 c 0,504 -3,540 -53,625 -142,241 -496,230 -619,-21 l -33,-67 -3,-502 -3,-503 h -149 -150 v 478 c 0,527 -2,543 -62,632 -63,94 -184,160 -292,160 -102,0 -226,-62 -283,-143 -71,-98 -68,-69 -71,-624 l -3,-503 h -149 -149 l -3,503 -3,502 -33,67 c -57,115 -166,188 -291,194 -36,2 -83,-1 -104,-6 z"
       id="path4"
       inkscape:connector-curvature="0" />
  </g>
  <g
     style="fill:#000000;fill-opacity:1"
     id="g10"
     transform="matrix(0.75049532,0,0,-0.75049824,-443.34745,-367.58379)">
    <g
       style="fill:#000000;fill-opacity:1"
       id="g12"
       transform="scale(0.1)">
      <path
         inkscape:connector-curvature="0"
         d="m 7380.5835,-5850.0766 c -95.9925,0 -174.0941,-103.6678 -174.0941,-231.0651 0,-50.7741 31.1184,-92.0733 69.3762,-92.0733 h 288.4271 c 38.2577,0 69.3761,41.2992 69.3761,92.0733 0,127.3973 -78.1017,231.0651 -174.094,231.0651 z m -233.7476,-276.6181 c -35.8672,-20.3722 -74.4571,-99.8693 -74.4571,-226.2993 v -366.9414 c 0,-113.0145 31.7616,-221.818 89.4429,-306.3371 57.0486,-83.6369 134.6036,-136.7583 218.3545,-149.6048 l 12.8311,-1.949 v 937.6477 h -117.1417 c -50.9925,0 -96.6678,42.039 -113.6795,104.6209 l -4.1377,15.2222 z m 296.6383,-1051.5157 12.7027,1.7641 c 175.5516,24.2702 307.9257,220.5376 307.9257,456.5109 v 366.9414 c 0,146.0767 -45.6432,210.9775 -72.6132,226.2993 l -11.2126,6.3592 -4.1376,-15.2365 c -17.2797,-63.5635 -61.1756,-104.6066 -111.8465,-104.6066 h -120.8185 z m -23.4004,-67.7034 c -159.7192,0 -303.1344,126.4584 -365.3498,322.1852 l -3.0015,9.4179 -7.7072,-0.085 c -120.1433,-1.3799 -181.0639,-83.6085 -181.0639,-244.3953 v -43.8884 c 0,-18.4516 -11.3173,-33.4747 -25.2324,-33.4747 -13.9139,0 -25.2323,15.0231 -25.2323,33.4747 v 43.8884 c 0,187.9877 74.0926,298.1711 208.6425,310.2778 l 13.2493,1.195 -2.7656,17.2424 c -6.5281,40.4456 -9.6903,76.4669 -9.6903,110.1408 v 99.3998 h -272.3824 c -13.9194,0 -25.2336,15.0231 -25.2336,33.4889 0,18.4659 11.3142,33.4748 25.2336,33.4748 h 272.3824 v 200.5779 c 0.032,0.7825 0.1285,1.4654 0.2359,2.1625 0.4071,2.9021 0.7396,5.3491 0.7825,8.2086 l 0.2464,14.2264 -10.6764,1.323 c -128.9868,15.9763 -200.0243,125.8467 -200.0243,309.3246 v 43.8884 c 0,18.4659 11.3184,33.489 25.2323,33.489 13.9151,0 25.2324,-15.0231 25.2324,-33.489 v -43.8884 c 0,-149.7755 52.8275,-231.5204 157.0309,-242.9869 l 9.9906,-1.0954 2.1868,12.9887 c 17.9121,106.2569 60.4252,176.4215 116.6271,192.5258 l 7.9432,2.262 1.0505,10.6698 c 9.6368,97.4935 54.9155,182.3255 121.1079,226.911 l 14.021,9.4464 -11.0302,14.8808 c -27.8492,37.6004 -43.1887,86.7241 -43.1887,138.2948 v 43.2767 c 0,18.4516 11.3198,33.4747 25.2336,33.4747 13.9139,0 25.2333,-15.0231 25.2333,-33.4747 v -43.2767 c 0,-71.2743 44.5179,-129.2611 99.2298,-129.2611 h 63.3839 c 54.7119,0 99.2296,57.9868 99.2296,129.2611 v 43.2767 c 0,18.4516 11.3198,33.4747 25.2336,33.4747 13.9137,0 25.2226,-15.0231 25.2226,-33.4747 v -43.2767 c 0,-51.5707 -15.3286,-100.6944 -43.1883,-138.2948 l -11.009,-14.8808 14.0211,-9.4464 c 66.0315,-44.4859 111.2139,-129.3179 120.8613,-226.911 l 1.0611,-10.6698 7.9326,-2.262 c 56.2127,-16.1043 98.7365,-86.1266 116.6808,-192.1275 l 2.2189,-13.1451 10.1084,1.2803 c 101.7809,12.9602 153.3948,94.5629 153.3948,242.5601 v 43.8884 c 0,18.4659 11.3091,33.489 25.2229,33.489 13.9244,0 25.2333,-15.0231 25.2333,-33.489 v -43.8884 c 0,-181.4719 -70.4264,-291.1717 -198.309,-308.8693 l -10.5587,-1.4653 0.2465,-14.0699 c -0.011,-0.5407 -0.1394,-1.9633 -0.2679,-3.0587 -0.2679,-2.4185 -0.5358,-4.9081 -0.5358,-7.7819 v -200.5779 h 272.3802 c 13.9138,0 25.2228,-15.0089 25.2228,-33.4748 0,-18.4658 -11.309,-33.4889 -25.2228,-33.4889 h -272.3802 v -99.3856 c 0,-41.4415 -2.5835,-77.5766 -7.9112,-110.468 l -2.7547,-17.0717 13.1312,-1.3657 c 133.4568,-13.7996 206.9596,-123.8835 206.9596,-309.9648 v -43.8884 c 0,-18.4516 -11.3089,-33.4747 -25.2333,-33.4747 -13.9138,0 -25.2229,15.0231 -25.2229,33.4747 v 43.8884 c 0,159.0938 -59.6535,241.294 -177.2991,244.31 l -7.793,0.2134 -3.0335,-9.5317 c -62.2263,-195.6841 -205.6306,-322.1141 -365.3392,-322.1141"
         style="fill:#ffffff;fill-opacity:1;fill-rule:nonzero;stroke:none;stroke-width:1.23490345"
         id="path16" />
    </g>
  </g>
</svg>
