<?xml version="1.0" encoding="UTF-8" standalone="no"?>
<svg
   xmlns:dc="http://purl.org/dc/elements/1.1/"
   xmlns:cc="http://creativecommons.org/ns#"
   xmlns:rdf="http://www.w3.org/1999/02/22-rdf-syntax-ns#"
   xmlns:svg="http://www.w3.org/2000/svg"
   xmlns="http://www.w3.org/2000/svg"
   xmlns:sodipodi="http://sodipodi.sourceforge.net/DTD/sodipodi-0.dtd"
   xmlns:inkscape="http://www.inkscape.org/namespaces/inkscape"
   viewBox="0 0 300 300"
   version="1.1"
   id="svg1005"
   sodipodi:docname="hdl.svg"
   inkscape:version="0.92.4 5da689c313, 2019-01-14"
   width="300"
   height="300">
  <metadata
     id="metadata1011">
    <rdf:RDF>
      <cc:Work
         rdf:about="">
        <dc:format>image/svg+xml</dc:format>
        <dc:type
           rdf:resource="http://purl.org/dc/dcmitype/StillImage" />
        <dc:title></dc:title>
      </cc:Work>
    </rdf:RDF>
  </metadata>
  <defs
     id="defs1009" />
  <sodipodi:namedview
     pagecolor="#ffffff"
     bordercolor="#666666"
     borderopacity="1"
     objecttolerance="10"
     gridtolerance="10"
     guidetolerance="10"
     inkscape:pageopacity="0"
     inkscape:pageshadow="2"
     inkscape:window-width="1533"
     inkscape:window-height="845"
     id="namedview1007"
     showgrid="false"
     inkscape:zoom="0.4609375"
     inkscape:cx="256"
     inkscape:cy="256"
     inkscape:window-x="67"
     inkscape:window-y="27"
     inkscape:window-maximized="1"
     inkscape:current-layer="svg1005"
     fit-margin-top="0"
     fit-margin-left="0"
     fit-margin-right="0"
     fit-margin-bottom="0" />
  <path
     d="M 0,0 H 300 V 300 H 0 Z"
     id="path999"
     style="fill:#ffffff;fill-opacity:0;stroke-width:0.5859375"
     inkscape:connector-curvature="0" />
  <g
     class=""
     transform="scale(0.5859375)"
     style="fill:#000000;fill-opacity:1"
     id="g1003">
    <path
       d="M 53.86,89.17 42.14,102.8 c 17.99,15.4 32.89,31.6 44.81,48.2 H 16 v 18 h 82.58 c 16.32,28.3 24.42,57.7 24.42,87 0,29.3 -8.1,58.7 -24.42,87 H 16 v 18 h 70.95 c -11.92,16.6 -26.82,32.8 -44.81,48.2 l 11.72,13.6 C 76.45,403.4 94.71,382.7 108.6,361 h 19.7 c 3.6,-5.9 6.9,-11.9 9.9,-18 H 119 c 14.6,-28.2 22,-57.5 22,-87 0,-29.5 -7.4,-58.8 -22,-87 h 19.2 c -3,-6.1 -6.3,-12.1 -9.9,-18 H 108.6 C 94.72,129.3 76.45,108.5 53.86,89.17 Z M 116.6,105 c 40,45.9 60.4,98.4 60.4,151 0,52.6 -20.4,105.1 -60.4,151 H 192 c 34.1,0 81.9,-34 119.3,-71.4 18.7,-18.6 35.1,-37.9 46.6,-53.3 5.8,-7.6 10.4,-14.4 13.4,-19.4 1.4,-2.5 2.5,-4.7 3.2,-6.1 0.1,-0.4 0.2,-0.5 0.2,-0.8 0,-0.3 -0.1,-0.5 -0.2,-0.9 -0.6,-1.4 -1.7,-3.5 -3.2,-6 -3,-5.1 -7.5,-11.8 -13.2,-19.5 C 346.8,214.2 330.6,195 312,176.4 274.8,139 227.1,105 192,105 Z M 416,233 c -12.8,0 -23,10.2 -23,23 0,12.8 10.2,23 23,23 12.8,0 23,-10.2 23,-23 0,-12.8 -10.2,-23 -23,-23 z m 40,14 c 0.6,2.9 1,5.9 1,9 0,3.1 -0.4,6.1 -1,9 h 40 v -18 z"
       id="path1001"
       style="fill:#000000;fill-opacity:1"
       inkscape:connector-curvature="0" />
  </g>
</svg>
