<?xml version="1.0" encoding="UTF-8" standalone="no"?>
<svg
   xmlns:dc="http://purl.org/dc/elements/1.1/"
   xmlns:cc="http://creativecommons.org/ns#"
   xmlns:rdf="http://www.w3.org/1999/02/22-rdf-syntax-ns#"
   xmlns:svg="http://www.w3.org/2000/svg"
   xmlns="http://www.w3.org/2000/svg"
   xmlns:sodipodi="http://sodipodi.sourceforge.net/DTD/sodipodi-0.dtd"
   xmlns:inkscape="http://www.inkscape.org/namespaces/inkscape"
   viewBox="0 0 512 512"
   style="height: 512px; width: 512px;"
   version="1.1"
   id="svg8"
   sodipodi:docname="j-mpsoc-dbg.svg"
   inkscape:version="0.92.4 5da689c313, 2019-01-14">
  <metadata
     id="metadata14">
    <rdf:RDF>
      <cc:Work
         rdf:about="">
        <dc:format>image/svg+xml</dc:format>
        <dc:type
           rdf:resource="http://purl.org/dc/dcmitype/StillImage" />
      </cc:Work>
    </rdf:RDF>
  </metadata>
  <defs
     id="defs12" />
  <sodipodi:namedview
     pagecolor="#ffffff"
     bordercolor="#666666"
     borderopacity="1"
     objecttolerance="10"
     gridtolerance="10"
     guidetolerance="10"
     inkscape:pageopacity="0"
     inkscape:pageshadow="2"
     inkscape:window-width="1487"
     inkscape:window-height="643"
     id="namedview10"
     showgrid="false"
     inkscape:zoom="1.2632275"
     inkscape:cx="63.25841"
     inkscape:cy="253"
     inkscape:window-x="92"
     inkscape:window-y="227"
     inkscape:window-maximized="0"
     inkscape:current-layer="g6" />
  <path
     d="M0 0h512v512H0z"
     fill="#7c2828"
     fill-opacity="0"
     id="path2" />
  <g
     class=""
     transform="translate(0,0)"
     style="touch-action: none;"
     id="g6">
    <path
       id="path4"
       style="fill:#8bc34a;fill-opacity:1"
       d="m 228.8457,32.21875 -0.002,0.002 V 146.4375 h 17.6875 V 32.21875 Z m -108.25195,0.625 C 105.08675,32.84375 92.5,45.4305 92.5,60.9375 92.5,76.4445 105.08675,89 120.59375,89 c 12.655,0 23.33975,-8.372 26.84375,-19.875 h 44.9375 v 77.3125 h 17.6875 v -95 h -63.0332 c -3.888,-10.837 -14.26155,-18.591797 -26.43555,-18.591797 z m 193.25,0 c -15.507,0 -28.0625,12.58675 -28.0625,28.09375 0,12.124 7.67645,22.449 18.43945,26.375 v 59.125 h 17.65625 V 87.84375 c 11.596,-3.452 20.0625,-14.19325 20.0625,-26.90625 0,-15.508 -12.58675,-28.09375 -28.09375,-28.09375 z M 266.12305,92.5 v 53.9375 h 17.6582 V 92.5 h -17.6543 z m 188.5332,4.029297 c -15.507,0 -28.09375,12.588703 -28.09375,28.095703 0,13.083 8.9475,24.0735 21.0625,27.1875 v 27.46875 h -92.9375 v 17.65625 h 110.62305 v -46.3418 c 10.223,-4.192 17.4082,-14.23175 17.4082,-25.96875 0,-15.507 -12.55745,-28.0957 -28.06445,-28.0957 z M 30.1875,123.65625 V 141.3457 H 96.75 v 55.59375 h 62.81445 V 179.2793 H 114.4375 v -55.62305 z m 147.0332,40.46875 -0.002,0.002 V 323.8457 H 337.0293 V 164.125 Z M 53.123047,217.37695 v 89.9668 c -11.49,3.512 -19.84375,14.19775 -19.84375,26.84375 0,15.505 12.557453,28.09375 28.064453,28.09375 15.507,0 28.09375,-12.5868 28.09375,-28.0918 0,-12.195 -7.79025,-22.5635 -18.65625,-26.4375 v -72.7207 h 88.78125 v -17.6543 z m 301.564453,0 v 17.6543 h 53.9668 v -17.6543 z m 99.9668,21.9668 v 0.002 c -10.898,0 -20.342,6.2093 -25,15.2793 h -74.96875 l 0.002,17.6875 H 427 c 2.325,13.168 13.82425,23.1875 27.65625,23.1875 15.507,0 28.0625,-12.58775 28.0625,-28.09375 0,-15.507 -12.55745,-28.0625 -28.06445,-28.0625 z M 105.59375,254.625 v 17.6875 H 159.5625 V 254.625 Z m 17.15625,36.46875 -0.002,0.002 v 84.2168 c -11.498,3.513 -19.875,14.19975 -19.875,26.84375 0,15.506 12.5887,28.09375 28.0957,28.09375 15.506,0 28.05859,-12.58775 28.05859,-28.09375 0,-12.194 -7.76504,-22.5645 -18.62304,-26.4375 v -66.9395 h 19.15625 v -17.68555 z m 231.9375,0.002 v 17.68555 h 45.15625 v 95.2832 c -11.323,3.624 -19.53125,14.2593 -19.53125,26.7793 -0.002,15.506 12.5848,28.0625 28.0918,28.0625 15.507,0 28.06445,-12.55555 28.06445,-28.06055 0,-12.32 -7.9357,-22.77945 -18.9707,-26.56445 V 291.0957 Z M 192.375,341.5293 v 54.0332 h 17.6875 v -54.0332 z m 36.4707,0 v 86.56445 c -11.013,3.794 -18.9414,14.2323 -18.9414,26.5293 0,15.506 12.5887,28.0957 28.0957,28.0957 15.507,0 28.0625,-12.5907 28.0625,-28.0957 0,-12.53 -8.20225,-23.14 -19.53125,-26.75 V 341.5293 Z m 37.2793,0 v 54.0332 h 17.6875 l -0.0312,-54.03125 H 266.127 Z m 38.09375,0 v 140.06445 h 17.6543 V 341.5293 H 304.2207 Z"
       inkscape:connector-curvature="0"
       sodipodi:nodetypes="cccccccssccccccccssccccssscccccccsccccccscccccccccccccccccccsssccccccccccccccccssccccccccccsssccccccccccssccccccccccsssccccccccccccccc" />
    <text
       xml:space="preserve"
       style="font-style:normal;font-weight:normal;font-size:24.79886055px;line-height:20;font-family:sans-serif;letter-spacing:0px;word-spacing:0px;fill:#ffffff;fill-opacity:1;stroke:none;stroke-width:0.61997151"
       x="200.16191"
       y="235.98151"
       id="text816"
       transform="scale(0.93782801,1.0662936)"><tspan
         sodipodi:role="line"
         id="tspan814"
         x="200.16191"
         y="235.98151"
         style="stroke-width:0.61997151">MPSoC-DBG</tspan></text>
  </g>
</svg>
