<?xml version="1.0" encoding="UTF-8" standalone="no"?>
<svg
   xmlns:dc="http://purl.org/dc/elements/1.1/"
   xmlns:cc="http://creativecommons.org/ns#"
   xmlns:rdf="http://www.w3.org/1999/02/22-rdf-syntax-ns#"
   xmlns:svg="http://www.w3.org/2000/svg"
   xmlns="http://www.w3.org/2000/svg"
   xmlns:sodipodi="http://sodipodi.sourceforge.net/DTD/sodipodi-0.dtd"
   xmlns:inkscape="http://www.inkscape.org/namespaces/inkscape"
   viewBox="0 0 512 512"
   style="height: 512px; width: 512px;"
   version="1.1"
   id="svg8"
   sodipodi:docname="j-mpsoc-dma.svg"
   inkscape:version="0.92.4 5da689c313, 2019-01-14">
  <metadata
     id="metadata14">
    <rdf:RDF>
      <cc:Work
         rdf:about="">
        <dc:format>image/svg+xml</dc:format>
        <dc:type
           rdf:resource="http://purl.org/dc/dcmitype/StillImage" />
      </cc:Work>
    </rdf:RDF>
  </metadata>
  <defs
     id="defs12" />
  <sodipodi:namedview
     pagecolor="#ffffff"
     bordercolor="#666666"
     borderopacity="1"
     objecttolerance="10"
     gridtolerance="10"
     guidetolerance="10"
     inkscape:pageopacity="0"
     inkscape:pageshadow="2"
     inkscape:window-width="1533"
     inkscape:window-height="845"
     id="namedview10"
     showgrid="false"
     inkscape:zoom="1.0422573"
     inkscape:cx="54.929678"
     inkscape:cy="198.50847"
     inkscape:window-x="67"
     inkscape:window-y="27"
     inkscape:window-maximized="1"
     inkscape:current-layer="g6" />
  <path
     d="M0 0h512v512H0z"
     fill="#7c2828"
     fill-opacity="0"
     id="path2" />
  <g
     class=""
     transform="translate(0,0)"
     style="touch-action: none;"
     id="g6">
    <path
       d="m 228.844,32.22 v 114.218 h 17.687 V 32.218 h -17.686 z m -108.25,0.624 C 105.087,32.844 92.5,45.43 92.5,60.937 92.5,76.444 105.087,89 120.594,89 c 12.655,0 23.34,-8.372 26.844,-19.875 h 44.937 v 77.313 h 17.688 v -95 H 147.03 C 143.142,40.601 132.768,32.845 120.594,32.845 Z m 193.25,0 c -15.507,0 -28.063,12.586 -28.063,28.093 0,12.124 7.677,22.45 18.44,26.376 v 59.124 h 17.655 V 87.844 c 11.596,-3.452 20.063,-14.193 20.063,-26.906 0,-15.508 -12.587,-28.094 -28.094,-28.094 z M 266.124,92.5 v 53.938 h 17.657 V 92.5 h -17.655 z m 188.532,4.03 c -15.507,0 -28.094,12.588 -28.094,28.095 0,13.083 8.948,24.074 21.063,27.188 v 27.468 h -92.938 v 17.657 h 110.624 v -46.342 c 10.223,-4.192 17.407,-14.233 17.407,-25.97 0,-15.507 -12.557,-28.094 -28.064,-28.094 z M 30.187,123.657 v 17.688 H 96.75 v 55.594 h 62.814 V 179.28 h -45.126 v -55.624 h -84.25 z m 147.032,40.47 v 159.718 h 159.81 V 164.125 H 177.22 Z M 53.124,217.375 v 89.969 c -11.49,3.512 -19.844,14.198 -19.844,26.844 0,15.505 12.557,28.093 28.064,28.093 15.507,0 28.093,-12.587 28.093,-28.092 0,-12.195 -7.79,-22.564 -18.656,-26.438 v -72.72 h 88.782 V 217.376 H 53.124 Z m 301.563,0 v 17.656 h 53.968 v -17.655 h -53.97 z m 99.968,21.97 c -10.898,0 -20.342,6.21 -25,15.28 h -74.97 l 0.002,17.688 H 427 c 2.325,13.168 13.824,23.187 27.656,23.187 15.507,0 28.063,-12.588 28.063,-28.094 0,-15.507 -12.557,-28.062 -28.064,-28.062 z m -349.062,15.28 v 17.688 h 53.97 v -17.688 z m 17.156,36.47 v 84.217 c -11.498,3.513 -19.875,14.2 -19.875,26.844 0,15.506 12.587,28.094 28.094,28.094 15.506,0 28.06,-12.588 28.06,-28.094 0,-12.194 -7.766,-22.564 -18.624,-26.437 v -66.94 h 19.156 v -17.686 h -36.81 z m 231.938,0 v 17.686 h 45.156 v 95.283 c -11.323,3.624 -19.53,14.26 -19.53,26.78 -0.002,15.506 12.585,28.063 28.092,28.063 15.507,0 28.063,-12.557 28.063,-28.062 0,-12.32 -7.935,-22.778 -18.97,-26.563 V 291.095 H 354.684 Z M 192.375,341.53 v 54.033 h 17.688 V 341.53 Z m 36.47,0 v 86.564 c -11.013,3.794 -18.94,14.233 -18.94,26.53 0,15.506 12.588,28.095 28.095,28.095 15.507,0 28.063,-12.59 28.063,-28.095 0,-12.53 -8.203,-23.14 -19.532,-26.75 V 341.53 Z m 37.28,0 v 54.033 h 17.688 l -0.032,-54.032 h -17.655 z m 38.094,0 v 140.064 h 17.655 V 341.53 H 304.22 Z"
       id="path4"
       inkscape:connector-curvature="0"
       style="fill:#9c27b0;fill-opacity:1"
       sodipodi:nodetypes="cccccccssccccccccssccccssscccccccsccccccsccccccccccccccccccccssscccccccccccccccccsscccccccccssscccccccccccsscccccccccccsssccccccccccccccc" />
    <text
       xml:space="preserve"
       style="font-style:normal;font-weight:normal;font-size:36.64305878px;line-height:20;font-family:sans-serif;letter-spacing:0px;word-spacing:0px;fill:#000000;fill-opacity:1;stroke:none;stroke-width:0.91607696"
       x="203.26808"
       y="232.45911"
       id="text816"
       transform="scale(0.92382944,1.0824509)"><tspan
         sodipodi:role="line"
         id="tspan814"
         x="203.26808"
         y="232.45911"
         style="font-size:24.42869949px;fill:#ffffff;stroke-width:0.91607696">MPSoC-DMA</tspan></text>
  </g>
</svg>
