<?xml version="1.0" encoding="UTF-8" standalone="no"?>
<svg
   xmlns:dc="http://purl.org/dc/elements/1.1/"
   xmlns:cc="http://creativecommons.org/ns#"
   xmlns:rdf="http://www.w3.org/1999/02/22-rdf-syntax-ns#"
   xmlns:svg="http://www.w3.org/2000/svg"
   xmlns="http://www.w3.org/2000/svg"
   xmlns:sodipodi="http://sodipodi.sourceforge.net/DTD/sodipodi-0.dtd"
   xmlns:inkscape="http://www.inkscape.org/namespaces/inkscape"
   id="Capa_1"
   enable-background="new 0 0 510 510"
   height="400"
   viewBox="0 0 398.4375 398.4375"
   width="400"
   version="1.1"
   sodipodi:docname="modeling1.svg"
   inkscape:version="0.92.4 5da689c313, 2019-01-14">
  <metadata
     id="metadata17">
    <rdf:RDF>
      <cc:Work
         rdf:about="">
        <dc:format>image/svg+xml</dc:format>
        <dc:type
           rdf:resource="http://purl.org/dc/dcmitype/StillImage" />
        <dc:title></dc:title>
      </cc:Work>
    </rdf:RDF>
  </metadata>
  <defs
     id="defs15" />
  <sodipodi:namedview
     pagecolor="#ffffff"
     bordercolor="#666666"
     borderopacity="1"
     objecttolerance="10"
     gridtolerance="10"
     guidetolerance="10"
     inkscape:pageopacity="0"
     inkscape:pageshadow="2"
     inkscape:window-width="1533"
     inkscape:window-height="845"
     id="namedview13"
     showgrid="false"
     inkscape:zoom="1.2189636"
     inkscape:cx="256"
     inkscape:cy="256"
     inkscape:window-x="67"
     inkscape:window-y="27"
     inkscape:window-maximized="1"
     inkscape:current-layer="Capa_1" />
  <path
     d="m 283.21688,374.80707 h -40.31402 l -5.93684,-69.41943 h -75.49631 l -5.93684,69.41943 h -40.31313 c -7.37405,0 -13.3515,5.28983 -13.3515,11.8156 0,6.52578 5.97745,11.81483 13.3515,11.81483 h 167.99714 c 7.37404,0 13.35149,-5.28984 13.35149,-11.81561 0,-6.52577 -5.97745,-11.81482 -13.35149,-11.81482 z"
     id="path2"
     inkscape:connector-curvature="0"
     style="stroke-width:0.83047444" />
  <path
     d="m 331.05767,67.57471 v 99.23579 c 0,3.87577 -2.14521,7.50624 -5.74086,9.7117 l -118.48787,72.69677 c -4.39547,2.67656 -10.3173,3.04687 -15.37134,-0.0945 L 73.120692,176.5222 c -3.595651,-2.20546 -5.740859,-5.83671 -5.740859,-9.7117 V 67.57471 H 13.351492 C 5.9774497,67.57471 0,72.86454 0,79.39031 v 190.5505 c 0,6.52578 5.9774497,11.81561 13.351492,11.81561 9.076083,0 376.226208,0 371.734518,0 7.37404,0 13.35149,-5.28983 13.35149,-11.81561 V 79.39031 c 0,-6.52577 -5.97745,-11.8156 -13.35149,-11.8156 z"
     id="path4"
     inkscape:connector-curvature="0"
     style="stroke-width:0.83047444" />
  <path
     d="M 185.86682,216.93933 V 134.64726 L 94.081933,78.33485 v 82.29284 z"
     id="path6"
     inkscape:connector-curvature="0"
     style="stroke-width:0.83047444" />
  <path
     d="m 212.5698,216.93933 91.78488,-56.31164 V 78.32703 l -91.78488,56.31242 z"
     id="path8"
     inkscape:connector-curvature="0"
     style="stroke-width:0.83047444" />
  <path
     d="M 199.21831,114.08011 294.27044,55.7591 c 0,0 -87.67721,-53.79602 -87.44503,-53.65383 -4.57556,-2.80703 -10.63864,-2.80703 -15.2142,0 L 104.16618,55.7591 Z"
     id="path10"
     inkscape:connector-curvature="0"
     style="stroke-width:0.83047444" />
</svg>
