<?xml version="1.0" encoding="UTF-8" standalone="no"?>
<!-- Generator: Adobe Illustrator 19.0.0, SVG Export Plug-In . SVG Version: 6.00 Build 0)  -->

<svg
   xmlns:dc="http://purl.org/dc/elements/1.1/"
   xmlns:cc="http://creativecommons.org/ns#"
   xmlns:rdf="http://www.w3.org/1999/02/22-rdf-syntax-ns#"
   xmlns:svg="http://www.w3.org/2000/svg"
   xmlns="http://www.w3.org/2000/svg"
   xmlns:sodipodi="http://sodipodi.sourceforge.net/DTD/sodipodi-0.dtd"
   xmlns:inkscape="http://www.inkscape.org/namespaces/inkscape"
   version="1.1"
   id="Capa_1"
   x="0px"
   y="0px"
   viewBox="0 0 400.00002 400.00002"
   xml:space="preserve"
   sodipodi:docname="modeling.svg"
   width="400"
   height="400"
   inkscape:version="0.92.4 5da689c313, 2019-01-14"><metadata
   id="metadata43"><rdf:RDF><cc:Work
       rdf:about=""><dc:format>image/svg+xml</dc:format><dc:type
         rdf:resource="http://purl.org/dc/dcmitype/StillImage" /><dc:title></dc:title></cc:Work></rdf:RDF></metadata><defs
   id="defs41" /><sodipodi:namedview
   pagecolor="#ffffff"
   bordercolor="#666666"
   borderopacity="1"
   objecttolerance="10"
   gridtolerance="10"
   guidetolerance="10"
   inkscape:pageopacity="0"
   inkscape:pageshadow="2"
   inkscape:window-width="1533"
   inkscape:window-height="845"
   id="namedview39"
   showgrid="false"
   fit-margin-top="0"
   fit-margin-left="0"
   fit-margin-right="0"
   fit-margin-bottom="0"
   inkscape:zoom="0.46093662"
   inkscape:cx="256.00049"
   inkscape:cy="256.00049"
   inkscape:window-x="67"
   inkscape:window-y="27"
   inkscape:window-maximized="1"
   inkscape:current-layer="Capa_1" />
<g
   id="g6"
   transform="matrix(0.78124847,0,0,0.88888889,0,-27.555556)">
	<g
   id="g4">
		<path
   d="m 467.001,211 c -1.909,0 -3.786,0.133 -5.634,0.365 L 408.432,107.147 C 416.206,99.056 421,88.081 421,76 421,51.187 400.813,31 376,31 356.445,31 339.772,43.542 333.58,61 H 178.42 C 172.228,43.542 155.555,31 136,31 111.187,31 91,51.187 91,76 c 0,12.081 4.794,23.056 12.568,31.147 L 50.634,211.365 C 48.786,211.133 46.909,211 45,211 20.187,211 0,231.187 0,256 c 0,24.813 20.187,45 45,45 1.909,0 3.786,-0.133 5.634,-0.365 l 52.935,104.218 C 95.794,412.944 91,423.919 91,436 c 0,24.813 20.187,45 45,45 19.555,0 36.228,-12.542 42.42,-30 h 155.16 c 6.192,17.458 22.865,30 42.42,30 24.813,0 45,-20.187 45,-45 0,-12.081 -4.794,-23.056 -12.568,-31.147 l 52.935,-104.218 c 1.847,0.232 3.724,0.365 5.634,0.365 24.813,0 45,-20.187 45,-45 0,-24.813 -20.187,-45 -45,-45 z m -32.448,13.823 -73.718,-25.118 c 0.1,-1.223 0.165,-2.456 0.165,-3.705 0,-13.548 -6.027,-25.708 -15.531,-33.965 l 30.193,-41.044 c 0.113,0.001 0.224,0.009 0.337,0.009 1.909,0 3.786,-0.133 5.634,-0.365 z m -132.01,14.12 c 4.251,1.336 8.771,2.057 13.457,2.057 12.724,0 24.222,-5.316 32.414,-13.834 l 72.793,24.803 -157.697,39.209 c -0.022,-0.034 -0.043,-0.069 -0.066,-0.103 z M 301,196 c 0,-8.271 6.729,-15 15,-15 8.271,0 15,6.729 15,15 0,8.271 -6.729,15 -15,15 -8.271,0 -15,-6.729 -15,-15 z M 376,61 c 8.271,0 15,6.729 15,15 0,8.271 -6.729,15 -15,15 -8.271,0 -15,-6.729 -15,-15 0,-8.271 6.729,-15 15,-15 z m -42.42,30 c 2.625,7.401 7.135,13.913 12.951,18.965 l -30.193,41.044 C 316.225,151.008 316.113,151 316,151 c -10.106,0 -19.444,3.35 -26.964,8.996 L 185.542,91 Z m -61.202,93.946 C 271.481,188.484 271,192.188 271,196 c 0,9.213 2.787,17.784 7.556,24.925 l -39.099,52.132 C 235.206,271.722 230.686,271 226,271 c -0.284,0 -0.564,0.016 -0.846,0.021 L 166.374,114.276 Z M 241,316 c 0,8.271 -6.729,15 -15,15 -8.271,0 -15,-6.729 -15,-15 0,-8.271 6.729,-15 15,-15 8.271,0 15,6.729 15,15 z M 136,61 c 8.271,0 15,6.729 15,15 0,8.271 -6.729,15 -15,15 -8.271,0 -15,-6.729 -15,-15 0,-8.271 6.729,-15 15,-15 z m -5.633,59.635 c 1.847,0.232 3.724,0.365 5.633,0.365 0.284,0 0.564,-0.016 0.846,-0.021 l 60.222,160.59 c -2.419,2.037 -4.618,4.324 -6.563,6.82 L 89.979,255.15 C 89.759,243.406 85.023,232.754 77.432,224.853 Z M 45,271 c -8.271,0 -15,-6.729 -15,-15 0,-8.271 6.729,-15 15,-15 8.271,0 15,6.729 15,15 0,8.271 -6.729,15 -15,15 z m 91,180 c -8.271,0 -15,-6.729 -15,-15 0,-8.271 6.729,-15 15,-15 8.271,0 15,6.729 15,15 0,8.271 -6.729,15 -15,15 z m 13.458,-57.943 C 145.206,391.722 140.686,391 136,391 c -1.909,0 -3.786,0.133 -5.634,0.365 L 77.432,287.147 c 1.081,-1.125 2.103,-2.305 3.063,-3.536 l 100.527,33.239 c 0.166,8.889 2.913,17.155 7.535,24.075 z M 178.42,421 c -1.252,-3.53 -2.929,-6.86 -4.976,-9.925 l 39.099,-52.132 c 4.251,1.336 8.771,2.057 13.457,2.057 8.71,0 16.845,-2.495 23.742,-6.797 L 333.239,421 Z M 376,451 c -8.271,0 -15,-6.729 -15,-15 0,-8.271 6.729,-15 15,-15 8.271,0 15,6.729 15,15 0,8.271 -6.729,15 -15,15 z m 5.634,-59.635 C 379.786,391.133 377.909,391 376,391 c -8.71,0 -16.845,2.495 -23.742,6.797 l -83.765,-67.012 c 1.166,-3.342 1.953,-6.859 2.299,-10.505 l 158.699,-39.458 c 1.501,2.261 3.204,4.375 5.078,6.325 z M 467,271 c -8.271,0 -15,-6.729 -15,-15 0,-8.271 6.729,-15 15,-15 8.271,0 15,6.729 15,15 0,8.271 -6.729,15 -15,15 z"
   id="path2"
   inkscape:connector-curvature="0" />
	</g>
</g>
<g
   id="g8"
   transform="translate(0,-112.00098)">
</g>
<g
   id="g10"
   transform="translate(0,-112.00098)">
</g>
<g
   id="g12"
   transform="translate(0,-112.00098)">
</g>
<g
   id="g14"
   transform="translate(0,-112.00098)">
</g>
<g
   id="g16"
   transform="translate(0,-112.00098)">
</g>
<g
   id="g18"
   transform="translate(0,-112.00098)">
</g>
<g
   id="g20"
   transform="translate(0,-112.00098)">
</g>
<g
   id="g22"
   transform="translate(0,-112.00098)">
</g>
<g
   id="g24"
   transform="translate(0,-112.00098)">
</g>
<g
   id="g26"
   transform="translate(0,-112.00098)">
</g>
<g
   id="g28"
   transform="translate(0,-112.00098)">
</g>
<g
   id="g30"
   transform="translate(0,-112.00098)">
</g>
<g
   id="g32"
   transform="translate(0,-112.00098)">
</g>
<g
   id="g34"
   transform="translate(0,-112.00098)">
</g>
<g
   id="g36"
   transform="translate(0,-112.00098)">
</g>
</svg>