<?xml version="1.0" encoding="UTF-8" standalone="no"?>
<!-- Generator: Adobe Illustrator 19.0.0, SVG Export Plug-In . SVG Version: 6.00 Build 0)  -->

<svg
   xmlns:dc="http://purl.org/dc/elements/1.1/"
   xmlns:cc="http://creativecommons.org/ns#"
   xmlns:rdf="http://www.w3.org/1999/02/22-rdf-syntax-ns#"
   xmlns:svg="http://www.w3.org/2000/svg"
   xmlns="http://www.w3.org/2000/svg"
   xmlns:sodipodi="http://sodipodi.sourceforge.net/DTD/sodipodi-0.dtd"
   xmlns:inkscape="http://www.inkscape.org/namespaces/inkscape"
   version="1.1"
   id="Capa_1"
   x="0px"
   y="0px"
   viewBox="0 0 800 400"
   xml:space="preserve"
   sodipodi:docname="mpsoc-noc.svg"
   width="800"
   height="400"
   inkscape:version="0.92.4 5da689c313, 2019-01-14"><metadata
   id="metadata39"><rdf:RDF><cc:Work
       rdf:about=""><dc:format>image/svg+xml</dc:format><dc:type
         rdf:resource="http://purl.org/dc/dcmitype/StillImage" /><dc:title></dc:title></cc:Work></rdf:RDF></metadata><defs
   id="defs37" /><sodipodi:namedview
   pagecolor="#ffffff"
   bordercolor="#666666"
   borderopacity="1"
   objecttolerance="10"
   gridtolerance="10"
   guidetolerance="10"
   inkscape:pageopacity="0"
   inkscape:pageshadow="2"
   inkscape:window-width="1533"
   inkscape:window-height="845"
   id="namedview35"
   showgrid="false"
   fit-margin-top="0"
   fit-margin-left="0"
   fit-margin-right="0"
   fit-margin-bottom="0"
   inkscape:zoom="0.5"
   inkscape:cx="-8.902727"
   inkscape:cy="32.357867"
   inkscape:window-x="67"
   inkscape:window-y="27"
   inkscape:window-maximized="1"
   inkscape:current-layer="Capa_1" />
<path
   d="m 556.36364,0 c -24.06546,0 -43.63637,19.57091 -43.63637,43.63636 0,7.52728 1.91273,14.61091 5.28,20.8 L 446.52364,135.92 c -9.85455,-7.67273 -22.18909,-12.28364 -35.61455,-12.28364 -13.42545,0 -25.76,4.61091 -35.62182,12.27637 L 319.51273,80.13818 c 2.56,-4.32727 4.12363,-9.30182 4.12363,-14.68363 0,-16.04364 -13.04727,-29.09091 -29.09091,-29.09091 -16.04363,0 -29.09091,13.04727 -29.09091,29.09091 0,16.04363 13.04728,29.0909 29.09091,29.0909 5.38182,0 10.35637,-1.56363 14.68364,-4.12363 l 55.77455,55.77454 c -7.66546,9.86182 -12.27637,22.19637 -12.27637,35.62182 0,13.42546 4.61091,25.76 12.27637,35.61455 l -92.10182,92.10909 c -7.75273,-7.03273 -18,-11.36 -29.26546,-11.36 -24.06545,0 -43.63636,19.57091 -43.63636,43.63636 0,24.06546 19.57091,43.63636 43.63636,43.63636 24.06546,0 43.63637,-19.5709 43.63637,-43.63636 0,-7.52727 -1.91273,-14.61091 -5.28,-20.8 l 93.30182,-93.30182 c 8.04363,6.25455 17.74545,10.44364 28.34909,11.77455 v 73.89091 C 383.04,316.85818 367.28,334.77818 367.28,356.36364 367.28,380.42909 386.85091,400 410.91636,400 c 24.06546,0 43.63637,-19.57091 43.63637,-43.63636 0,-21.57818 -15.76,-39.49819 -36.36364,-42.98182 v -73.89091 c 10.60364,-1.33091 20.30546,-5.52 28.34909,-11.77455 l 55.77455,55.77455 c -2.56728,4.33455 -4.13091,9.30909 -4.13091,14.69091 0,16.04363 13.04727,29.09091 29.09091,29.09091 16.04363,0 29.09091,-13.04728 29.09091,-29.09091 0,-16.04364 -13.04728,-29.09091 -29.09091,-29.09091 -5.38182,0 -10.35637,1.56363 -14.68364,4.12364 L 456.81455,217.44 c 7.66545,-9.86182 12.27636,-22.19636 12.27636,-35.62182 0,-13.42545 -4.61091,-25.76 -12.27636,-35.61454 l 70.2909,-70.29091 c 7.74546,7.03272 17.99273,11.36 29.25819,11.36 C 580.42909,87.27273 600,67.70182 600,43.63636 600,19.57091 580.42909,0 556.36364,0 Z"
   id="path2"
   inkscape:connector-curvature="0"
   style="stroke-width:7.27272749" />
<g
   id="g4"
   transform="translate(0,345)">
</g>
<g
   id="g6"
   transform="translate(0,345)">
</g>
<g
   id="g8"
   transform="translate(0,345)">
</g>
<g
   id="g10"
   transform="translate(0,345)">
</g>
<g
   id="g12"
   transform="translate(0,345)">
</g>
<g
   id="g14"
   transform="translate(0,345)">
</g>
<g
   id="g16"
   transform="translate(0,345)">
</g>
<g
   id="g18"
   transform="translate(0,345)">
</g>
<g
   id="g20"
   transform="translate(0,345)">
</g>
<g
   id="g22"
   transform="translate(0,345)">
</g>
<g
   id="g24"
   transform="translate(0,345)">
</g>
<g
   id="g26"
   transform="translate(0,345)">
</g>
<g
   id="g28"
   transform="translate(0,345)">
</g>
<g
   id="g30"
   transform="translate(0,345)">
</g>
<g
   id="g32"
   transform="translate(0,345)">
</g>
</svg>