<?xml version="1.0" encoding="UTF-8" standalone="no"?>
<svg
   xmlns:dc="http://purl.org/dc/elements/1.1/"
   xmlns:cc="http://creativecommons.org/ns#"
   xmlns:rdf="http://www.w3.org/1999/02/22-rdf-syntax-ns#"
   xmlns:svg="http://www.w3.org/2000/svg"
   xmlns="http://www.w3.org/2000/svg"
   xmlns:sodipodi="http://sodipodi.sourceforge.net/DTD/sodipodi-0.dtd"
   xmlns:inkscape="http://www.inkscape.org/namespaces/inkscape"
   viewBox="0 0 400.00024 400"
   version="1.1"
   id="svg8"
   sodipodi:docname="mpsoc-dbg.svg"
   inkscape:version="0.92.4 5da689c313, 2019-01-14"
   width="400.00024"
   height="400">
  <metadata
     id="metadata14">
    <rdf:RDF>
      <cc:Work
         rdf:about="">
        <dc:format>image/svg+xml</dc:format>
        <dc:type
           rdf:resource="http://purl.org/dc/dcmitype/StillImage" />
        <dc:title></dc:title>
      </cc:Work>
    </rdf:RDF>
  </metadata>
  <defs
     id="defs12" />
  <sodipodi:namedview
     pagecolor="#ffffff"
     bordercolor="#666666"
     borderopacity="1"
     objecttolerance="10"
     gridtolerance="10"
     guidetolerance="10"
     inkscape:pageopacity="0"
     inkscape:pageshadow="2"
     inkscape:window-width="1533"
     inkscape:window-height="845"
     id="namedview10"
     showgrid="false"
     inkscape:zoom="1.2131875"
     inkscape:cx="273.81084"
     inkscape:cy="247.32203"
     inkscape:window-x="67"
     inkscape:window-y="27"
     inkscape:window-maximized="1"
     inkscape:current-layer="g6"
     fit-margin-top="0"
     fit-margin-left="0"
     fit-margin-right="0"
     fit-margin-bottom="0" />
  <path
     d="M 0,-112 H 512 V 400 H 0 Z"
     id="path2"
     inkscape:connector-curvature="0"
     style="fill:#7c2828;fill-opacity:0" />
  <g
     class=""
     id="g6"
     transform="translate(0,-112)">
    <path
       d="m 175.59598,112.00178 v 101.4142 h 15.63381 V 112 h -15.63293 z m -95.683841,0.55405 c -13.706876,0 -24.832719,11.17511 -24.832719,24.94378 0,13.76867 11.125843,24.91715 24.832719,24.91715 11.185949,0 20.630581,-7.4335 23.727821,-17.64702 h 39.72051 v 68.64624 h 15.63469 V 129.06544 H 103.27933 C 99.842663,119.44327 90.672925,112.55671 79.912139,112.55671 Z m 170.816651,0 c -13.70688,0 -24.80532,11.17511 -24.80532,24.94378 0,10.7649 6.78582,19.93336 16.2994,23.41926 v 52.49622 h 15.60553 v -52.02474 c 10.24988,-3.06504 17.73399,-12.60197 17.73399,-23.88985 0,-13.76956 -11.12584,-24.94467 -24.83272,-24.94467 z m -42.18044,52.96858 v 47.89157 h 15.60729 v -47.89157 h -15.60553 z m 166.64633,3.57824 c -13.70687,0 -24.83272,11.17689 -24.83272,24.94556 0,11.6164 7.90928,21.37531 18.61791,24.14023 v 24.38885 h -82.14933 v 15.67766 h 97.78226 v -41.14708 c 9.03627,-3.72208 15.38632,-12.63749 15.38632,-23.05877 0,-13.76867 -11.09933,-24.94468 -24.80621,-24.94468 z M 0,193.18872 v 15.70518 h 58.83606 v 49.36194 h 55.52226 V 242.5764 H 74.470756 V 193.18783 H 8.8391539e-4 Z m 129.96385,35.93333 V 370.93572 H 271.22237 V 229.12027 H 129.96473 Z M 20.274367,276.40097 v 79.8835 c -10.156188,3.11831 -17.5404167,12.60641 -17.5404167,23.8348 0,13.7669 11.0993257,24.94379 24.8062017,24.94379 13.706876,0 24.831835,-11.17601 24.831835,-24.9429 0,-10.82795 -6.885701,-20.03458 -16.490326,-23.47431 V 292.07774 H 114.35744 V 276.40185 H 20.274367 Z m 266.556173,0 v 15.67677 h 47.70315 v -15.67589 h -47.70491 z m 88.36326,19.50717 c -9.63291,0 -17.98061,5.51386 -22.09789,13.56712 h -66.26713 l 0.002,15.70518 h 63.91858 c 2.0551,11.69187 12.21924,20.58774 24.44556,20.58774 13.70688,0 24.80532,-11.17689 24.80532,-24.94467 0,-13.76867 -11.09933,-24.91626 -24.8062,-24.91626 z M 66.652524,309.47526 v 15.70518 h 47.704916 v -15.70518 z m 15.164452,32.38172 v 74.77631 c -10.163259,3.11919 -17.567818,12.60818 -17.567818,23.83479 0,13.76779 11.125843,24.94468 24.832719,24.94468 13.705993,0 24.802663,-11.17689 24.802663,-24.94468 0,-10.82705 -6.86448,-20.03458 -16.462037,-23.47342 v -59.43605 h 16.932287 v -15.7034 H 81.81786 Z m 205.013564,0 v 15.70341 h 39.91409 v 84.60181 c -10.00858,3.21775 -17.26287,12.66146 -17.26287,23.77797 -0.002,13.76778 11.12408,24.91715 24.83095,24.91715 13.70688,0 24.80532,-11.14937 24.80532,-24.91626 0,-10.93894 -7.01387,-20.2246 -16.76788,-23.5853 V 341.85698 h -55.52226 z m -143.47007,44.78126 v 47.97592 h 15.63469 v -47.97592 z m 32.23639,0 v 76.8602 c -9.73456,3.3687 -16.74135,12.63749 -16.74135,23.556 0,13.76778 11.12672,24.94556 24.8336,24.94556 13.70688,0 24.80532,-11.17867 24.80532,-24.94556 0,-11.12539 -7.25076,-20.54601 -17.26464,-23.75134 v -76.66486 z m 32.95237,0 v 47.97592 h 15.6347 l -0.0283,-47.97504 H 208.5501 Z m 33.67187,0 v 124.36287 h 15.60553 V 386.63824 h -15.60464 z"
       id="path4"
       inkscape:connector-curvature="0"
       style="fill:#000000;fill-opacity:1;stroke-width:0.88590562"
       sodipodi:nodetypes="cccccccssccccccccssccccssscccccccsccccccsccccccccccccccccccccssscccccccccccccccccsscccccccccssscccccccccccsscccccccccccsssccccccacccccccc" />
  </g>
</svg>
