<?xml version="1.0" encoding="UTF-8" standalone="no"?>
<svg
   xmlns:dc="http://purl.org/dc/elements/1.1/"
   xmlns:cc="http://creativecommons.org/ns#"
   xmlns:rdf="http://www.w3.org/1999/02/22-rdf-syntax-ns#"
   xmlns:svg="http://www.w3.org/2000/svg"
   xmlns="http://www.w3.org/2000/svg"
   xmlns:sodipodi="http://sodipodi.sourceforge.net/DTD/sodipodi-0.dtd"
   xmlns:inkscape="http://www.inkscape.org/namespaces/inkscape"
   version="1.2"
   id="Layer_1"
   width="300"
   height="300.00003"
   x="0px"
   y="0px"
   viewBox="0 0 172.238 180.99401"
   xml:space="preserve"
   sodipodi:docname="open-source-hardware.svg"
   inkscape:version="0.92.4 5da689c313, 2019-01-14"><metadata
   id="metadata937"><rdf:RDF><cc:Work
       rdf:about=""><dc:format>image/svg+xml</dc:format><dc:type
         rdf:resource="http://purl.org/dc/dcmitype/StillImage" /><dc:title></dc:title></cc:Work></rdf:RDF></metadata><defs
   id="defs935" /><sodipodi:namedview
   pagecolor="#ffffff"
   bordercolor="#666666"
   borderopacity="1"
   objecttolerance="10"
   gridtolerance="10"
   guidetolerance="10"
   inkscape:pageopacity="0"
   inkscape:pageshadow="2"
   inkscape:window-width="1533"
   inkscape:window-height="845"
   id="namedview933"
   showgrid="false"
   inkscape:zoom="1.6450003"
   inkscape:cx="150"
   inkscape:cy="200"
   inkscape:window-x="67"
   inkscape:window-y="27"
   inkscape:window-maximized="1"
   inkscape:current-layer="Layer_1"
   fit-margin-top="0"
   fit-margin-left="0"
   fit-margin-right="0"
   fit-margin-bottom="0" />
<path
   d="m 174.17358,86.513906 -22.22272,-4.59124 c -0.54074,-0.11263 -1.13284,-0.67734 -1.31534,-1.25706 l -6.81186,-17.65602 c -0.25414,-0.54518 -0.20548,-1.40125 0.10814,-1.90888 l 12.94782,-20.96615 c 0.30957,-0.504629 0.24874,-1.272087 -0.14194,-1.706128 L 140.56575,20.46152 c -0.39068,-0.434042 -1.08011,-0.50463 -1.53433,-0.157697 l -19.20273,14.640259 c -0.45422,0.346933 -1.23287,0.408509 -1.72628,0.138173 l -15.40545,-7.006238 c -0.52316,-0.19224 -1.0328,-0.842551 -1.13553,-1.444803 L 97.282884,1.094865 C 97.182849,0.492615 96.648872,0 96.097331,0 H 73.224379 C 72.674187,0 72.14021,0.492615 72.040175,1.094865 l -4.277184,25.536349 c -0.102739,0.602252 -0.611026,1.252563 -1.135536,1.444803 l -15.406797,7.006238 c -0.494769,0.270336 -1.273423,0.20876 -1.726285,-0.138173 L 30.292992,20.303823 C 29.837426,19.95689 29.146641,20.027478 28.757314,20.46152 L 12.58403,38.428428 c -0.389326,0.434041 -0.454214,1.201499 -0.141941,1.706128 l 12.949171,20.96615 c 0.31092,0.50763 0.359587,1.3637 0.106794,1.90888 l -6.813219,17.65602 c -0.181145,0.57972 -0.771894,1.14443 -1.31533,1.25706 l -22.2213625,4.59124 c -0.5434416,0.11414 -0.9854834,0.70587 -0.9854834,1.31864 l 0.0015,25.410194 c 0,0.61276 0.4433993,1.20901 0.9854909,1.31864 l 21.676577,4.48159 c 0.542084,0.10964 1.122019,0.68186 1.286941,1.26608 l 6.767257,18.78092 c 0.241977,0.55119 0.185201,1.41326 -0.128424,1.91789 l -12.312459,19.93437 c -0.310921,0.50463 -0.247385,1.27359 0.141941,1.70763 l 16.174636,17.9669 c 0.389327,0.43104 1.080112,0.50163 1.535678,0.1577 L 47.916945,167.3342 c 0.454215,-0.34543 1.215295,-0.37246 1.689787,-0.0646 l 7.773017,4.61074 c 0.492066,0.27936 1.066593,0.0436 1.277478,-0.52264 l 16.027129,-43.02417 c 0.212235,-0.56621 0,-1.28861 -0.470437,-1.6085 l -1.945279,-1.32315 c -0.359587,-0.24331 -0.847599,-0.66233 -1.230167,-1.04681 -7.017345,-4.99219 -11.673044,-13.72559 -11.673044,-23.67099 0,-15.520364 11.325624,-28.101554 25.294076,-28.101554 13.968454,0 25.292715,12.58119 25.292715,28.101554 0,9.9454 -4.65434,18.6788 -11.673041,23.67102 -0.37986,0.38448 -0.86922,0.8035 -1.22746,1.04681 l -1.945279,1.32315 c -0.467737,0.31989 -0.681321,1.04229 -0.470437,1.6085 l 16.025937,43.02566 c 0.21088,0.56621 0.78406,0.8005 1.27747,0.52265 l 7.77302,-4.61075 c 0.47584,-0.30789 1.23558,-0.28235 1.68979,0.0646 l 17.6265,13.44026 c 0.45422,0.34392 1.14635,0.27333 1.53433,-0.1577 l 16.17463,-17.96688 c 0.39068,-0.43404 0.45421,-1.203 0.14194,-1.70763 l -12.31381,-19.93439 c -0.31092,-0.50463 -0.36905,-1.3667 -0.12707,-1.91788 l 6.76726,-18.78093 c 0.16627,-0.58422 0.74215,-1.15644 1.28558,-1.26607 l 21.67659,-4.48159 c 0.54072,-0.10964 0.98548,-0.70589 0.98548,-1.31865 l 0.003,-25.410194 c 0.002,-0.61427 -0.44205,-1.206 -0.98277,-1.32014"
   id="path896"
   style="fill:#000000;fill-opacity:1;stroke-width:1.42487764"
   inkscape:connector-curvature="0" />

















</svg>