<?xml version="1.0" encoding="UTF-8" standalone="no"?>
<!-- Created with Inkscape (http://www.inkscape.org/) -->

<svg
   xmlns:dc="http://purl.org/dc/elements/1.1/"
   xmlns:cc="http://creativecommons.org/ns#"
   xmlns:rdf="http://www.w3.org/1999/02/22-rdf-syntax-ns#"
   xmlns:svg="http://www.w3.org/2000/svg"
   xmlns="http://www.w3.org/2000/svg"
   xmlns:sodipodi="http://sodipodi.sourceforge.net/DTD/sodipodi-0.dtd"
   xmlns:inkscape="http://www.inkscape.org/namespaces/inkscape"
   width="120.9346mm"
   height="26.414492mm"
   viewBox="0 0 120.9346 26.414493"
   version="1.1"
   id="svg8"
   inkscape:version="0.92.4 5da689c313, 2019-01-14"
   sodipodi:docname="qf.svg">
  <defs
     id="defs2" />
  <sodipodi:namedview
     id="base"
     pagecolor="#ffffff"
     bordercolor="#666666"
     borderopacity="1.0"
     inkscape:pageopacity="0.0"
     inkscape:pageshadow="2"
     inkscape:zoom="1.8507752"
     inkscape:cx="210.75624"
     inkscape:cy="23.364256"
     inkscape:document-units="mm"
     inkscape:current-layer="layer1"
     showgrid="false"
     inkscape:window-width="1533"
     inkscape:window-height="845"
     inkscape:window-x="67"
     inkscape:window-y="27"
     inkscape:window-maximized="1"
     fit-margin-top="0"
     fit-margin-left="0"
     fit-margin-right="0"
     fit-margin-bottom="0" />
  <metadata
     id="metadata5">
    <rdf:RDF>
      <cc:Work
         rdf:about="">
        <dc:format>image/svg+xml</dc:format>
        <dc:type
           rdf:resource="http://purl.org/dc/dcmitype/StillImage" />
        <dc:title></dc:title>
      </cc:Work>
    </rdf:RDF>
  </metadata>
  <g
     inkscape:label="Capa 1"
     inkscape:groupmode="layer"
     id="layer1"
     transform="translate(-69.768925,28.594345)">
    <g
       style="fill:#000000;stroke:none"
       id="g3963"
       transform="matrix(0.03527778,0,0,-0.02314621,-73.311337,22.044882)">
      <path
         id="path3957-35"
         d="m 5730.1857,2172.2292 -65.548,-17.9134 -26.0265,9.9519 c -24.0986,8.4591 -28.9183,8.9568 -53.0168,2.4879 -30.8462,-8.459 -32.7741,-14.4302 -6.7476,-21.8942 23.1345,-6.4688 25.0624,-12.9375 3.8558,-16.9183 -8.6755,-1.4927 -27.9544,1.4928 -43.3775,6.9664 -26.0264,9.9519 -28.9183,9.9519 -52.0528,1.9903 -28.9183,-9.9518 -29.8822,-14.9278 -4.8197,-22.8894 23.1345,-7.4639 24.0985,-11.9423 3.8558,-15.9231 -8.6755,-1.4928 -27.9544,1.4928 -43.3775,6.9664 -26.0265,9.952 -28.9183,9.952 -52.0528,1.9904 -28.9183,-9.952 -29.8822,-14.9279 -4.8197,-22.8895 23.1346,-7.4639 24.0984,-11.9423 3.8558,-15.9231 -8.6755,-1.4928 -28.9183,1.4928 -46.2693,6.4688 -29.8821,9.9519 -29.8821,9.9519 -53.9807,0 l -24.0986,-9.4544 21.2068,-9.4543 c 19.2788,-7.9615 20.2428,-10.4496 7.7115,-15.4255 -11.5673,-4.976 -20.2428,-3.9808 -45.3053,3.9807 -27.9543,8.9568 -31.81,9.4544 -53.0168,2.4881 -26.9906,-8.9568 -27.9545,-15.4255 -4.8199,-24.3822 12.5315,-4.9761 13.4954,-7.464 4.8199,-12.44 -8.6756,-4.4784 -18.3151,-3.4832 -44.3415,4.976 l -33.7381,10.9471 -26.9902,-11.9423 -26.9905,-11.9424 21.2068,-5.9711 c 11.5673,-2.9856 21.2068,-7.9615 21.2068,-9.952 0,-9.4543 -31.8102,-9.9518 -56.8727,-0.9951 -24.0986,8.9567 -26.9904,8.9567 -52.0528,1.4928 -30.8462,-9.952 -32.7741,-13.9328 -6.7476,-21.8943 10.6034,-3.4832 19.2789,-7.9615 19.2789,-9.4543 0,-7.9616 -33.7381,-8.9568 -53.9809,-1.9904 -27.9544,9.4544 -42.4134,9.4544 -66.5119,-0.4977 -19.2789,-7.4639 -19.2789,-7.4639 2.8918,-16.9182 25.0625,-10.9471 26.0265,-12.9376 5.7836,-16.9183 -8.6754,-1.4928 -27.9543,0.9952 -42.4135,5.4735 -24.0984,7.464 -31.81,7.464 -53.0167,1.4929 -29.8823,-7.9616 -29.8823,-13.4352 -2.8919,-24.8799 l 21.2068,-8.4591 -21.2068,-3.4832 c -12.5312,-1.9904 -29.8822,-0.4976 -45.3053,4.976 -20.2427,6.4687 -29.8821,7.4639 -48.197,2.9856 -29.8823,-6.9664 -30.8462,-18.4112 -2.8919,-26.3727 19.2789,-5.4736 19.2789,-5.9712 2.8919,-10.9471 -12.5313,-3.4832 -26.0265,-2.488 -49.1612,3.9807 -30.846,8.4592 -33.7378,8.4592 -57.8364,0.4977 l -25.0626,-8.9567 22.1707,-11.9424 c 19.2789,-10.9471 20.2429,-11.9423 3.8558,-14.9279 -9.6394,-1.9904 -28.9183,0 -45.3052,4.976 -26.0265,7.9615 -29.8822,7.9615 -51.089,0.9952 -29.8822,-9.952 -29.8822,-15.9231 -3.8558,-23.3871 18.315,-4.9759 19.2789,-6.4687 5.7837,-12.9375 -13.4952,-6.9662 -17.351,-6.4687 -43.3773,2.9855 -25.0625,8.9568 -32.7741,9.952 -53.9809,4.9761 -29.8822,-7.464 -31.8101,-16.4207 -5.7836,-25.875 17.351,-5.9712 18.3149,-7.9617 5.7836,-13.4352 -12.5312,-4.976 -21.2067,-3.9807 -46.2691,3.9808 -28.9183,8.9567 -34.702,9.4544 -57.8366,2.9856 -31.81,-8.4592 -33.7379,-14.4303 -7.7116,-21.8943 10.6034,-2.9855 19.2789,-7.4639 19.2789,-10.4495 0,-9.952 -28.9183,-9.952 -54.9446,-0.4976 -25.0626,8.9567 -29.8823,9.4543 -53.9809,2.9855 -32.7739,-8.9567 -32.7739,-14.4302 -0.9639,-24.8797 22.1707,-7.9616 23.1346,-8.9568 7.7115,-13.4351 -11.5673,-3.4833 -26.0263,-2.4881 -49.1609,3.9807 -26.0265,7.4639 -36.6299,7.9615 -55.9088,3.4832 -13.495,-2.9856 -24.0984,-8.4591 -24.0984,-11.9424 0,-7.4639 60.7283,-28.8606 80.9711,-28.8606 21.2068,0 24.0986,-31.8461 3.8558,-44.7837 -9.6395,-5.9712 -17.351,-15.4255 -17.351,-20.4014 0,-5.9712 -17.351,-14.9279 -48.1972,-24.8799 -26.0263,-8.4591 -48.197,-16.9183 -48.197,-19.4063 0,-1.9903 10.6034,-7.4639 24.0986,-11.9423 23.1345,-7.9615 26.0263,-7.464 67.4759,4.976 30.8462,9.4543 49.161,19.4063 62.6562,34.8318 18.3149,19.9039 40.4856,27.8654 52.0529,17.9135 1.9279,-1.9905 -0.9639,-12.44 -6.7476,-23.3871 -8.6755,-14.4303 -22.1707,-22.3919 -56.8727,-33.8366 -26.0263,-8.4591 -46.2691,-16.9183 -46.2691,-19.9038 0,-5.9712 29.8822,-17.9136 46.2691,-18.4111 27.9544,0 89.6466,26.8703 107.9616,48.2669 16.387,19.9038 20.2428,21.3966 38.5577,16.4206 11.5673,-2.9855 19.2789,-6.9663 17.351,-8.9567 -1.9279,-1.9904 -11.5673,-11.9423 -20.2428,-21.8942 -10.6034,-11.9424 -30.8462,-22.8895 -54.9448,-29.8558 -41.4494,-12.44 -45.3052,-21.3967 -13.4951,-32.3438 18.3148,-5.9712 25.0624,-4.976 67.4759,9.9519 26.0265,8.9567 46.2692,19.4062 44.3413,22.3919 -0.9639,3.4832 1.9279,5.9711 7.7115,5.9711 4.8198,0 9.6395,2.9856 9.6395,6.9663 0,3.4832 6.7476,9.4544 14.4591,12.9376 11.5674,4.9759 17.351,4.9759 28.9183,0 13.4953,-5.9712 13.4953,-7.4639 0,-14.9279 -7.7115,-4.4784 -14.4591,-11.9423 -14.4591,-16.4207 0,-4.976 -22.1707,-16.4207 -48.1972,-26.3727 -47.2331,-17.4158 -48.197,-18.411 -32.7739,-27.3678 8.6755,-5.4735 24.0986,-9.4543 32.7739,-9.4543 26.9904,0 92.5384,27.3679 109.8894,46.7741 15.4231,16.9183 36.6299,22.8894 48.1972,13.4351 2.8918,-1.9904 -1.9279,-13.4351 -10.6034,-24.8798 -10.6033,-14.4304 -26.9904,-23.8847 -56.8726,-32.8415 -49.161,-14.9278 -51.0889,-18.9086 -19.2788,-30.3533 22.1706,-7.4639 26.0264,-6.9664 67.4759,5.4736 31.8102,9.4543 49.161,19.4063 62.6562,35.3293 20.2428,22.8894 30.8462,26.3726 47.2333,15.9231 17.3509,-11.4447 -20.2429,-46.2765 -64.5843,-59.214 -45.3052,-12.9375 -49.1609,-19.9038 -17.3508,-30.851 21.2066,-6.9663 26.0263,-6.4687 67.4759,6.9663 32.7739,10.4496 50.1249,20.4016 60.7283,34.3342 15.4231,19.9039 26.9904,23.3871 49.1611,15.9232 19.2787,-6.4688 -23.1346,-44.7837 -65.5481,-58.2189 -48.1971,-15.9231 -51.0889,-19.9038 -21.2066,-29.8557 24.0984,-8.4592 26.9902,-8.4592 54.9446,0 41.4496,12.4398 73.2596,27.8653 67.4759,32.8414 -2.8918,2.4879 0,4.4783 4.8197,4.4783 5.7837,0 10.6034,2.9856 10.6034,6.4687 0,10.9472 21.2067,18.4111 38.5577,13.4351 26.9903,-7.4639 -12.5312,-45.2812 -64.5842,-61.7019 -23.1345,-6.9664 -41.4494,-14.9279 -41.4494,-17.416 0,-2.4879 10.6034,-7.9614 25.0625,-12.4398 23.1345,-8.4592 26.0263,-7.9616 67.4759,5.4735 29.8821,9.4544 50.1249,20.8991 62.6562,35.3294 20.2428,21.8943 24.0986,23.387 47.2332,15.9231 11.5672,-3.9808 12.5312,-6.4688 2.8919,-14.9279 -6.7476,-5.4736 -12.5313,-13.4351 -12.5313,-17.4159 0,-3.9808 -21.2068,-14.9279 -48.1972,-23.3871 -26.0263,-8.9567 -48.197,-18.411 -48.197,-20.899 0,-5.9712 29.8821,-17.4159 46.2691,-17.9135 26.0265,0 88.6827,25.3775 102.1779,42.2958 15.4231,18.9086 39.5217,26.8702 54.9448,18.9086 6.7474,-3.4832 6.7474,-8.9568 -1.9279,-16.9183 -6.7476,-6.4687 -14.4591,-15.4255 -18.3149,-19.4063 -3.8558,-3.9808 -25.0626,-13.9326 -46.2693,-21.3966 -22.1706,-7.9616 -40.4855,-15.9232 -40.4855,-18.4111 0,-2.4879 10.6034,-8.4591 24.0984,-12.9375 22.1707,-7.4639 26.0265,-7.4639 67.4761,5.9712 27.9542,9.4542 48.197,20.8991 56.8725,32.8414 17.351,21.8942 32.7741,27.3677 49.1611,18.411 20.2427,-11.4447 -16.387,-46.2765 -62.6563,-59.7116 -44.3412,-12.9375 -48.197,-19.9038 -16.387,-30.851 21.2067,-6.9663 26.0264,-6.4687 67.476,6.9664 32.774,10.4495 50.1249,20.4014 60.7283,34.3341 15.4231,19.9039 26.9904,23.3871 49.1613,15.9231 20.2428,-6.4687 -19.279,-40.8028 -65.5483,-58.2188 -22.1707,-7.9615 -40.4855,-16.9182 -40.4855,-19.9038 0,-2.488 10.6034,-8.4592 25.0624,-12.44 23.1346,-6.9663 27.9543,-6.4687 66.5121,7.464 23.1348,8.4591 48.1972,21.8943 55.9087,29.8557 26.9904,26.8703 28.9183,27.8655 49.1611,21.8944 18.315,-4.976 18.315,-5.9712 4.8198,-16.9183 -8.6755,-6.9663 -15.4231,-15.4255 -15.4231,-19.9039 0,-3.9808 -21.2068,-14.4303 -48.1972,-22.8894 -26.0264,-8.4592 -48.1972,-16.9184 -48.1972,-19.4063 0,-1.9904 11.5675,-7.464 25.0627,-11.9424 23.1345,-7.9615 26.0263,-7.9615 65.548,3.9808 41.4496,12.44 60.7283,21.3967 64.5841,30.3534 3.8557,9.952 21.2067,27.3678 27.9543,27.3678 2.8919,0 13.4952,-2.9855 23.1347,-6.4687 15.4231,-5.9712 15.4231,-6.9664 1.9279,-12.9376 -8.6755,-3.9807 -15.4231,-10.947 -15.4231,-15.923 0,-5.4736 -19.2789,-16.9183 -48.1972,-27.3679 -26.0263,-9.9518 -48.197,-19.4062 -48.197,-21.3966 0,-1.4928 11.5673,-6.9664 26.0264,-10.9471 24.0985,-7.9616 26.9903,-7.4639 66.512,4.4783 26.0265,8.4592 48.197,20.4014 61.6922,34.3342 21.2068,21.8942 44.3414,27.3679 54.9448,13.4351 2.8918,-3.9808 0.964,-9.9519 -5.7836,-13.4351 -5.7837,-2.9855 -10.6034,-9.4544 -10.6034,-14.4303 0,-4.4784 -20.2428,-15.4255 -45.3054,-24.3822 -26.0263,-8.9568 -48.197,-16.9184 -50.1249,-17.9135 -7.7115,-2.9856 30.8462,-21.3967 44.3413,-21.3967 22.1707,0 91.5745,25.3774 96.3942,35.3294 2.8918,4.9759 8.6755,9.4543 13.4952,9.4543 4.8197,0 8.6755,2.9856 8.6755,6.4688 0,11.4447 20.2428,18.4111 37.5938,12.4399 15.4229,-4.976 15.4229,-6.4688 -2.8919,-25.3774 -10.6033,-10.9471 -37.5938,-26.8702 -60.7284,-34.8318 -23.1345,-8.4591 -41.4494,-16.9183 -41.4494,-19.4063 0,-1.9904 10.6034,-7.4639 23.1346,-11.9423 22.1706,-7.464 26.0263,-6.9664 68.4399,5.4735 30.846,9.952 49.1609,19.904 62.6562,35.3295 21.2067,23.387 31.8101,25.875 61.6922,14.4303 21.2068,-8.4592 107.9615,-9.9519 116.637,-2.488 9.6395,8.4591 20.2428,5.4735 32.7741,-8.4592 6.7476,-7.9616 12.5313,-14.9279 12.5313,-16.4207 -0.964,-4.9759 31.81,-20.4015 63.6201,-30.8509 27.9544,-8.9568 35.6659,-9.4544 55.9086,-3.9809 32.7741,9.4544 28.9183,17.416 -17.3509,33.8366 -50.125,17.9136 -74.2236,47.7694 -46.2693,55.7309 17.351,4.9759 35.666,-4.4784 51.0891,-25.8751 2.8916,-4.9759 24.0984,-15.4255 46.2691,-23.387 37.5938,-14.4304 41.4496,-14.9279 67.4759,-7.4639 15.4231,3.9807 27.9544,8.9567 27.9544,11.4447 0,2.4879 -21.2068,12.4399 -47.2333,21.8942 -33.7378,12.9375 -48.197,21.8943 -53.0167,33.8366 -3.8558,10.9471 -1.9279,17.4159 5.7836,20.4015 21.2068,6.4687 26.9905,4.4784 42.4136,-15.4256 14.459,-18.9086 75.1874,-45.2812 102.1777,-45.2812 16.387,0.4975 46.2693,12.4399 46.2693,17.9134 -0.964,2.488 -17.351,10.4496 -38.5578,17.9136 -21.2066,7.9614 -44.3412,21.3966 -53.0167,31.8461 -18.3149,22.3918 -18.3149,20.4015 4.8197,26.8702 16.387,4.4784 21.2068,3.4832 30.8462,-8.4591 5.7835,-7.4639 11.5672,-15.9231 11.5672,-18.4111 0.9639,-2.4879 21.2067,-12.4399 46.2693,-21.3966 39.5215,-14.9279 47.233,-15.9232 69.4038,-10.9471 34.7019,8.459 31.8101,16.9182 -12.5313,31.8461 -23.1345,7.9615 -42.4134,20.4015 -52.0528,32.8415 -13.4952,18.4109 -13.4952,19.9038 2.8918,24.3821 13.4952,3.9809 20.2428,1.9904 32.7739,-7.464 8.6755,-6.4687 15.4231,-14.4302 15.4231,-16.9181 0,-2.9857 20.2429,-12.9376 44.3414,-22.3919 44.3413,-17.416 45.3052,-17.416 72.2957,-9.4544 15.4231,4.976 27.9543,9.9519 27.9543,11.9424 0,1.9903 -21.2067,11.4447 -47.2332,20.899 -33.7379,12.9375 -48.197,21.8942 -53.0168,33.8366 -3.8557,10.9471 -1.9278,17.4159 5.7837,20.4014 21.2066,6.4687 26.9903,4.4784 42.4134,-15.4255 9.6394,-12.4399 28.9183,-24.3822 53.9808,-32.8413 33.7379,-11.9423 41.4494,-12.44 66.512,-7.464 37.5938,8.4591 34.7019,15.9231 -10.6034,31.8462 -22.1707,7.464 -44.3413,20.4015 -53.0168,30.851 -18.3149,22.3918 -18.3149,20.4014 4.8198,26.8702 16.3869,4.4784 21.2066,3.4832 30.846,-8.4591 5.7837,-7.4639 11.5673,-15.9231 11.5673,-18.4111 0.964,-2.488 21.2068,-12.4399 47.2333,-21.8943 44.3412,-16.4206 46.2691,-16.4206 69.4038,-8.9567 13.4952,4.4784 24.0985,10.4495 24.0985,12.9375 0,2.4879 -18.3149,10.9471 -40.4856,18.9087 -52.0528,18.411 -74.2235,47.7692 -44.3412,56.2284 15.4229,4.4784 19.2787,3.4832 24.0984,-4.976 2.8918,-5.9711 8.6755,-10.4495 13.4952,-10.4495 4.8197,0 8.6755,-2.9856 8.6755,-6.4688 0,-7.464 29.8823,-22.3918 68.4399,-35.3293 25.0625,-7.9616 26.9904,-7.9616 52.0529,3.4832 l 26.9903,11.4447 -50.1249,18.4111 c -29.8823,11.4447 -49.1612,21.8942 -49.1612,27.8654 0,5.4736 -4.8195,11.4447 -11.5671,13.4351 -6.7476,2.4879 -4.8198,5.4736 6.7476,10.4495 26.0263,9.4544 29.8821,8.4591 46.2691,-12.4399 9.6394,-12.4399 29.8823,-23.8847 55.9086,-33.3389 37.5938,-12.44 43.3775,-13.4351 65.5482,-6.9664 35.6657,10.4494 33.7378,15.4254 -13.4953,30.851 -31.8101,10.4495 -45.3053,18.9086 -52.0529,31.8462 -17.3508,31.8461 17.351,37.8173 44.3414,7.9615 9.6394,-9.9519 35.6659,-24.8798 57.8365,-33.339 38.5577,-13.9327 41.4495,-13.9327 64.5842,-5.9712 14.459,4.4784 25.0624,9.952 25.0624,11.9424 0,2.488 -19.2788,10.9471 -43.3773,19.9039 -24.0986,8.9567 -43.3775,19.9038 -43.3775,24.8797 0,4.976 -5.7837,11.9424 -11.5673,15.4255 -10.6033,4.9761 -8.6755,7.464 5.7836,12.9376 23.1347,8.9567 31.8102,5.9711 39.5217,-12.4399 3.8558,-9.952 21.2068,-20.4015 53.9807,-32.3438 46.2693,-16.9183 48.1972,-17.4159 71.3318,-9.4543 32.774,10.9471 29.8821,17.4158 -13.4952,31.8461 -45.3053,13.9327 -75.1876,45.2813 -53.0169,54.7357 14.4592,6.9663 32.7741,2.4879 32.7741,-7.9615 0,-3.9808 4.8197,-6.9664 10.6034,-6.9664 4.8197,0 7.7115,-1.9904 4.8197,-4.4783 -5.7837,-4.4784 23.1345,-19.4063 64.5841,-32.8415 21.2067,-6.9664 31.8101,-7.9616 50.1249,-3.4832 34.702,8.4592 29.8822,16.9184 -19.2787,34.8319 -24.0986,8.9567 -43.3775,19.9038 -43.3775,24.8797 0,4.9761 -5.7837,11.9423 -11.5673,14.9279 -9.6394,4.976 -9.6394,7.464 1.9279,10.9472 25.0625,7.9615 34.7019,5.4735 48.1972,-12.9376 8.6754,-10.9471 29.8821,-23.8846 54.9446,-32.3437 47.2332,-16.9183 49.1611,-16.9183 79.0432,-4.976 l 23.1347,9.4543 -42.4136,15.4255 c -45.3052,16.9183 -84.8268,52.2477 -63.6201,56.7261 26.9904,4.9759 31.8102,3.9807 50.1251,-14.4304 10.6034,-10.4495 37.5936,-25.3774 58.8004,-33.3389 39.5206,-13.9327 40.4856,-14.4303 65.5471,-5.9711 14.4592,4.9759 24.0995,10.4495 23.1347,12.4398 -1.927,1.9904 -22.1698,11.4448 -45.3043,20.4015 -47.2333,18.4111 -71.3319,46.7741 -47.2333,54.7356 20.2428,6.9664 24.0986,5.4736 40.4846,-14.9279 9.6403,-12.4399 29.8832,-24.8798 56.8736,-34.3342 39.5217,-14.4302 42.4135,-14.9279 67.475,-6.9663 14.4591,4.4785 26.0263,9.9519 26.0263,11.9424 0,1.9903 -19.2778,10.4495 -42.4125,18.411 -48.197,17.416 -77.1153,47.7693 -53.0176,55.7308 20.2427,6.4688 31.81,2.488 41.4505,-14.9279 8.6753,-15.923 77.1143,-45.2813 104.1056,-45.2813 15.4231,0.4976 46.2693,11.9423 46.2693,17.9135 0,2.488 -17.351,9.952 -37.5938,16.9183 -47.2342,14.9279 -71.3317,42.2957 -57.8365,65.6828 4.8187,8.4592 6.7476,16.9183 4.8187,17.9134 -2.8919,0.9953 17.351,7.9616 44.3423,15.4256 58.8005,15.4255 65.5471,21.8942 32.774,32.8414 -23.1346,7.9615 -26.0264,7.9615 -56.8735,-1.9904 -28.9183,-8.9568 -34.7018,-9.4544 -45.3043,-3.4832 -8.6755,5.9712 -6.7485,8.4591 8.6755,13.9326 26.9904,8.4592 25.0615,15.9232 -3.8567,23.8847 -22.1698,5.9711 -28.9183,5.9711 -53.9798,-1.9903 -23.1346,-6.9665 -31.8101,-7.464 -43.3775,-2.4881 -11.5673,4.976 -11.5673,6.9665 5.7837,12.9376 25.0615,8.9568 24.0986,14.4303 -4.8197,24.3822 -21.2068,6.9664 -25.0634,6.9664 -51.0899,-0.4975 -20.2418,-6.4688 -32.7731,-7.464 -45.3043,-3.9809 -16.3871,4.976 -16.3871,5.4736 2.8918,10.9472 27.9544,7.464 26.9904,17.4159 -1.9279,24.8798 -18.3149,5.4737 -26.9904,4.976 -51.0888,-0.9951 -35.666,-9.4544 -67.4761,-2.488 -38.5578,8.4591 22.1707,8.9567 21.2068,15.9231 -3.8558,24.8798 -18.3149,6.4687 -24.0985,6.4687 -53.0167,-0.9952 -26.0265,-6.4687 -35.6659,-6.4687 -45.3054,-1.4928 -8.6754,4.9759 -7.7115,6.9664 5.7837,10.9471 23.1347,6.9664 20.2428,16.4207 -7.7115,24.3823 -19.2788,5.4735 -26.9903,4.9759 -47.2331,-1.4928 -13.4952,-4.4783 -30.8462,-6.9664 -38.5578,-5.4736 -20.2428,3.9808 -19.2788,5.9712 4.8197,16.4207 l 21.2068,8.4592 -26.0265,10.4495 c -24.0984,9.9519 -27.9542,10.4496 -53.0167,2.9856 -16.3871,-4.976 -33.738,-6.9664 -45.3054,-4.4784 -17.3508,3.9808 -17.3508,4.4784 3.8558,11.4447 26.9904,9.9519 26.9904,13.4351 -2.8918,23.387 -22.1706,7.464 -26.9903,7.464 -52.0528,0.4976 -27.9544,-6.9663 -58.8004,-5.9711 -58.8004,2.4881 0,2.488 8.6753,5.9711 19.2787,7.4639 26.0265,4.4783 24.0986,14.4303 -4.8197,22.3919 -21.2066,5.9711 -28.9182,5.9711 -51.0889,-0.9952 -19.2789,-5.9712 -30.8462,-6.9664 -43.3775,-3.4832 -15.4229,4.976 -15.4229,5.9711 4.8198,14.9278 l 22.1707,9.4544 -23.1347,9.4544 c -22.1705,8.9567 -26.0263,8.9567 -55.9086,1.4928 -26.0264,-6.4688 -34.7019,-6.4688 -44.3414,-1.4928 -8.6753,4.9759 -7.7114,6.9663 5.7837,10.947 23.1346,6.9665 20.2428,16.4208 -6.7476,23.8847 -19.2787,5.4736 -26.9903,4.976 -46.2692,-1.4928 -13.4952,-4.4783 -31.8101,-6.9663 -40.4856,-4.9759 -20.2427,3.9807 -19.2787,5.9712 5.7837,16.4207 l 21.2067,8.9567 -26.9904,9.4544 c -26.0263,8.4592 -28.9181,8.4592 -54.9446,0.9952 -22.1707,-6.4688 -29.8823,-6.9664 -43.3775,-1.4928 -15.4229,5.9711 -15.4229,6.4687 3.8558,11.9423 26.9904,7.4639 26.9904,12.4399 -2.8918,22.3918 -22.1706,7.464 -26.0264,7.464 -48.1971,0 -18.3149,-6.4687 -29.8822,-6.9664 -46.2691,-3.4832 l -21.2068,4.976 22.1707,5.9712 c 27.9542,7.9615 26.9903,17.4159 -3.8557,24.8798 -21.2068,4.4784 -29.8823,4.4784 -48.1972,-1.9904 -11.5673,-3.9808 -28.9183,-5.9711 -36.6299,-4.4784 -20.2426,3.9808 -19.2787,5.9712 5.7837,16.4207 l 21.2067,8.9568 -26.9904,9.4543 c -26.0263,8.4592 -28.9181,8.4592 -56.8725,0 -25.0625,-7.4639 -30.8462,-7.4639 -43.3773,-0.9951 -12.5313,5.9711 -11.5673,7.464 6.7474,12.4398 26.0265,7.464 26.0265,12.4399 -3.8556,22.3919 -22.1707,7.464 -26.9904,7.464 -45.3053,0.4976 -29.8823,-10.4496 -38.5578,-9.4544 -91.5745,7.464 -73.2596,23.387 -102.1779,23.8846 -179.2932,2.4879 z"
         inkscape:connector-curvature="0"
         style="stroke-width:0.69257087" />
    </g>
    <flowRoot
       xml:space="preserve"
       id="flowRoot1259"
       style="font-style:normal;font-weight:normal;font-size:40px;line-height:1.25;font-family:sans-serif;letter-spacing:0px;word-spacing:0px;fill:#000000;fill-opacity:1;stroke:none"><flowRegion
         id="flowRegion1261"><rect
           id="rect1263"
           width="520.4306"
           height="237.58788"
           x="-2.8284271"
           y="159.47392" /></flowRegion><flowPara
         id="flowPara1265" /></flowRoot>    <flowRoot
       xml:space="preserve"
       id="flowRoot1267"
       style="font-style:normal;font-weight:normal;font-size:40px;line-height:1.25;font-family:sans-serif;letter-spacing:0px;word-spacing:0px;fill:#000000;fill-opacity:1;stroke:none"><flowRegion
         id="flowRegion1269"><rect
           id="rect1271"
           width="954.59418"
           height="511.94531"
           x="-255.97266"
           y="-104.98401" /></flowRegion><flowPara
         id="flowPara1273" /></flowRoot>    <flowRoot
       xml:space="preserve"
       id="flowRoot1275"
       style="font-style:normal;font-weight:normal;font-size:40px;line-height:1.25;font-family:sans-serif;letter-spacing:0px;word-spacing:0px;fill:#000000;fill-opacity:1;stroke:none"><flowRegion
         id="flowRegion1277"><rect
           id="rect1279"
           width="506.28845"
           height="246.07317"
           x="-100.40916"
           y="-80.942375" /></flowRegion><flowPara
         id="flowPara1281" /></flowRoot>    <text
       xml:space="preserve"
       style="font-style:normal;font-weight:normal;font-size:10.58333302px;line-height:1.25;font-family:sans-serif;letter-spacing:0px;word-spacing:0px;fill:#000000;fill-opacity:1;stroke:none;stroke-width:0.26458332"
       x="108.0817"
       y="-13.104096"
       id="text833"><tspan
         sodipodi:role="line"
         id="tspan831"
         x="108.0817"
         y="-13.104096"
         style="font-size:8.81944466px;fill:#ffffff;stroke-width:0.26458332">QueenField</tspan></text>
  </g>
</svg>
