<?xml version="1.0" encoding="UTF-8" standalone="no"?>
<!-- Generator: Adobe Illustrator 18.1.1, SVG Export Plug-In . SVG Version: 6.00 Build 0)  -->

<svg
   xmlns:dc="http://purl.org/dc/elements/1.1/"
   xmlns:cc="http://creativecommons.org/ns#"
   xmlns:rdf="http://www.w3.org/1999/02/22-rdf-syntax-ns#"
   xmlns:svg="http://www.w3.org/2000/svg"
   xmlns="http://www.w3.org/2000/svg"
   xmlns:sodipodi="http://sodipodi.sourceforge.net/DTD/sodipodi-0.dtd"
   xmlns:inkscape="http://www.inkscape.org/namespaces/inkscape"
   version="1.1"
   id="Capa_1"
   x="0px"
   y="0px"
   viewBox="0 0 399.99998 399.99998"
   xml:space="preserve"
   sodipodi:docname="verifying-pcb.svg"
   width="400"
   height="400"
   inkscape:version="0.92.4 5da689c313, 2019-01-14"><metadata
   id="metadata41"><rdf:RDF><cc:Work
       rdf:about=""><dc:format>image/svg+xml</dc:format><dc:type
         rdf:resource="http://purl.org/dc/dcmitype/StillImage" /><dc:title></dc:title></cc:Work></rdf:RDF></metadata><defs
   id="defs39" /><sodipodi:namedview
   pagecolor="#ffffff"
   bordercolor="#666666"
   borderopacity="1"
   objecttolerance="10"
   gridtolerance="10"
   guidetolerance="10"
   inkscape:pageopacity="0"
   inkscape:pageshadow="2"
   inkscape:window-width="1533"
   inkscape:window-height="845"
   id="namedview37"
   showgrid="false"
   inkscape:zoom="19.267575"
   inkscape:cx="16.148001"
   inkscape:cy="16.148001"
   inkscape:window-x="67"
   inkscape:window-y="27"
   inkscape:window-maximized="1"
   inkscape:current-layer="Capa_1" />
<g
   id="g4"
   transform="matrix(12.385099,0,0,16.85701,0.00619255,-72.207004)">
	<path
   style="fill:#030104"
   d="M 31.923,9.14 13.417,27.642 c -0.496,0.494 -1.299,0.494 -1.793,0 L 0.37,16.316 c -0.494,-0.496 -0.494,-1.302 0,-1.795 l 2.689,-2.687 c 0.496,-0.495 1.299,-0.495 1.793,0 L 12.53,19.563 27.438,4.654 c 0.494,-0.494 1.297,-0.494 1.795,0 l 2.689,2.691 c 0.499,0.495 0.499,1.301 10e-4,1.795 z"
   id="path2"
   inkscape:connector-curvature="0" />
</g>
<g
   id="g6"
   transform="translate(0,367.704)">
</g>
<g
   id="g8"
   transform="translate(0,367.704)">
</g>
<g
   id="g10"
   transform="translate(0,367.704)">
</g>
<g
   id="g12"
   transform="translate(0,367.704)">
</g>
<g
   id="g14"
   transform="translate(0,367.704)">
</g>
<g
   id="g16"
   transform="translate(0,367.704)">
</g>
<g
   id="g18"
   transform="translate(0,367.704)">
</g>
<g
   id="g20"
   transform="translate(0,367.704)">
</g>
<g
   id="g22"
   transform="translate(0,367.704)">
</g>
<g
   id="g24"
   transform="translate(0,367.704)">
</g>
<g
   id="g26"
   transform="translate(0,367.704)">
</g>
<g
   id="g28"
   transform="translate(0,367.704)">
</g>
<g
   id="g30"
   transform="translate(0,367.704)">
</g>
<g
   id="g32"
   transform="translate(0,367.704)">
</g>
<g
   id="g34"
   transform="translate(0,367.704)">
</g>
</svg>