<?xml version="1.0" encoding="UTF-8" standalone="no"?>
<svg
   xmlns:dc="http://purl.org/dc/elements/1.1/"
   xmlns:cc="http://creativecommons.org/ns#"
   xmlns:rdf="http://www.w3.org/1999/02/22-rdf-syntax-ns#"
   xmlns:svg="http://www.w3.org/2000/svg"
   xmlns="http://www.w3.org/2000/svg"
   xmlns:sodipodi="http://sodipodi.sourceforge.net/DTD/sodipodi-0.dtd"
   xmlns:inkscape="http://www.inkscape.org/namespaces/inkscape"
   height="300pt"
   viewBox="0 -34 300.00006 300"
   width="300.00006pt"
   version="1.1"
   id="svg10"
   sodipodi:docname="verilog2vhdl.svg"
   inkscape:version="0.92.4 5da689c313, 2019-01-14">
  <metadata
     id="metadata16">
    <rdf:RDF>
      <cc:Work
         rdf:about="">
        <dc:format>image/svg+xml</dc:format>
        <dc:type
           rdf:resource="http://purl.org/dc/dcmitype/StillImage" />
        <dc:title></dc:title>
      </cc:Work>
    </rdf:RDF>
  </metadata>
  <defs
     id="defs14" />
  <sodipodi:namedview
     pagecolor="#ffffff"
     bordercolor="#666666"
     borderopacity="1"
     objecttolerance="10"
     gridtolerance="10"
     guidetolerance="10"
     inkscape:pageopacity="0"
     inkscape:pageshadow="2"
     inkscape:window-width="1533"
     inkscape:window-height="845"
     id="namedview12"
     showgrid="false"
     fit-margin-top="0"
     fit-margin-left="0"
     fit-margin-right="0"
     fit-margin-bottom="0"
     inkscape:zoom="0.34570313"
     inkscape:cx="341.33333"
     inkscape:cy="341.33331"
     inkscape:window-x="67"
     inkscape:window-y="27"
     inkscape:window-maximized="1"
     inkscape:current-layer="svg10" />
  <path
     d="m 299.76653,107.9171 c -0.0595,-13.80091 -9.78698,-25.02818 -21.7987,-25.02818 l -73.70911,0.20345 -0.23575,-92.06419 C 203.96577,-22.77008 194.23828,-34 182.28606,-34 l -68.08776,0.20346 -37.673951,0.13476 c -1.641082,0 -3.222656,0.74514 -4.394531,2.09801 -1.171875,1.35288 -1.81732,3.17873 -1.81732,5.07328 0,3.92122 2.812957,7.10259 6.211851,7.10259 l 37.673951,-0.1374 68.02826,-0.20081 c 5.1567,0 9.31549,4.80112 9.31549,10.75429 l 0.23575,100.2475 c 0,2.90921 -0.93842,5.61496 -2.69623,7.64427 -1.75781,2.02931 -4.10156,3.17873 -6.62155,3.17873 l -87.538148,0.33821 c -1.81732,0 -3.515625,0.8799 -4.6875,2.5023 L 70.312498,131.59241 47.813414,104.73837 c -1.171875,-1.42158 -2.812958,-2.23277 -4.45404,-2.16672 l -21.327209,0.0687 c -2.462768,0 -4.806518,-1.08335 -6.564331,-3.11266 -1.757812,-2.02932 -2.753448,-4.73507 -2.753448,-7.64163 L 12.421417,-8.36408 c 0,-2.90657 0.938415,-5.61232 2.696228,-7.64163 1.757812,-2.02931 4.101562,-3.18137 6.621551,-3.18137 h 8.143616 c 3.398895,0 6.211852,-3.24478 6.152343,-7.16865 0,-1.89455 -0.645446,-3.72041 -1.874542,-5.07328 -1.171875,-1.35288 -2.753449,-2.09801 -4.394531,-2.02931 h -8.086395 c -5.799866,0 -11.249542,2.63705 -15.3511046,7.37211 C 2.2270201,-21.28245 0,-14.99105 0,-8.29538 L 0.23345976,91.95211 c 0,6.69833 2.28652904,12.98708 6.44531234,17.72214 4.1015619,4.66901 9.5512389,7.30605 15.2938839,7.30605 h 0.116729 l 18.692779,-0.0661 25.369264,30.30228 c 1.171875,1.35288 2.812957,2.16672 4.454039,2.16672 h 0.176238 c 1.757812,-0.0687 3.398894,-0.9486 4.511262,-2.50494 l 22.499085,-30.16752 22.794338,-0.0687 0.0573,92.06419 c 0,6.69567 2.28652,12.98707 6.38809,17.72213 4.10156,4.73506 9.55123,7.30606 15.3511,7.30606 l 60.23481,-0.20344 22.67532,30.03277 c 1.11237,1.49028 2.81296,2.43623 4.51126,2.43623 h 0.11673 c 1.70059,0 3.34168,-0.81119 4.45404,-2.23277 l 25.25482,-30.43968 18.69049,-0.0661 c 5.79987,0 11.24955,-2.6397 15.35111,-7.37476 4.10156,-4.73506 6.32858,-11.09251 6.32858,-17.79083 z m -12.18796,100.3162 c 0,2.90656 -0.93841,5.61231 -2.69622,7.64162 -1.75782,2.02931 -4.10157,3.18138 -6.62155,3.18138 l -21.32721,0.0661 c -1.69831,0 -3.28217,0.8112 -4.45404,2.23277 l -22.38236,26.9888 -20.09811,-26.58187 c -1.17188,-1.55633 -2.87018,-2.43624 -4.62799,-2.43624 h -0.0595 l -62.92877,0.13476 c -2.46048,0 -4.80423,-1.08071 -6.56204,-3.11002 -1.75782,-2.02931 -2.75345,-4.73506 -2.75345,-7.57822 l -0.0595,-92.13025 49.62845,-0.13476 c 10.02044,0 18.63327,-7.84772 21.03652,-19.00894 l 74.41406,-0.26952 c 5.15442,0 9.3155,4.80377 9.3155,10.7543 z m 0,0"
     id="path2"
     inkscape:connector-curvature="0"
     style="stroke-width:0.62956339" />
  <path
     d="m 51.679228,-19.32184 0.11673,0.0687 c 0.585938,0.20346 1.171875,0.26952 1.757813,0.26952 2.696227,0 5.156708,-2.09537 5.918883,-5.07328 0.995637,-3.78646 -0.878906,-7.77903 -4.161071,-8.92844 l -0.11673,-0.0687 c -3.279877,-1.14941 -6.738281,1.01466 -7.733917,4.80377 -0.878906,3.7891 0.938415,7.77903 4.218292,8.92844 z m 0,0"
     id="path4"
     inkscape:connector-curvature="0"
     style="stroke-width:0.62956339" />
  <path
     d="m 84.198759,83.70011 c 2.872465,0 4.57077,-1.14941 5.156707,-3.45089 l 3.163148,-13.46005 h 19.628906 l 3.16543,13.46005 c 0.52643,2.30148 2.28425,3.45089 5.15671,3.45089 2.28424,0 4.45175,-0.74514 6.56204,-2.16407 2.16751,-1.42158 3.22266,-3.24743 3.22266,-5.20804 0,-0.27216 -0.0595,-0.67644 -0.17624,-1.28682 L 112.26654,8.00782 c -0.52872,-1.89455 -1.75782,-3.38219 -3.63464,-4.46554 -1.81504,-1.01466 -3.98255,-1.48764 -6.38581,-1.48764 -2.403257,0 -4.511261,0.54168 -6.385804,1.48764 -1.876828,1.01465 -3.105925,2.50229 -3.63464,4.46554 L 74.530791,75.10989 c -0.116731,0.60773 -0.176239,1.01465 -0.176239,1.28416 0,2.02932 1.114653,3.78912 3.222657,5.20804 2.110289,1.35288 4.337308,2.09802 6.62155,2.09802 z M 95.684048,52.9222 102.24609,25.05352 108.80813,52.9222 Z m 0,0"
     id="path6"
     inkscape:connector-curvature="0"
     style="stroke-width:0.62956339" />
  <path
     d="m 229.04205,149.99097 c 0.11901,-1.28417 -0.23346,-2.43623 -0.93613,-3.45088 -1.17188,-1.48764 -3.33939,-2.43359 -5.80215,-2.43359 -2.51771,0 -4.10157,1.21812 -4.80423,3.78646 -3.74909,0 -7.26471,0.40692 -10.6041,1.21812 0.0572,-2.16408 0.11673,-3.6517 0.23346,-5.3428 0.4097,0 0.8194,-0.0687 1.28861,-0.0687 0.99563,-0.0661 2.16751,-0.13476 3.69186,-0.26952 1.46484,-0.13476 3.22265,-0.33821 5.15671,-0.61038 2.108,-0.26952 4.33502,-0.53903 6.3858,-0.67644 7.6767,-0.87725 10.13718,-2.70575 10.13718,-7.64162 0,-3.85781 -1.99128,-6.49486 -4.80423,-6.49486 -0.52872,0 -1.11466,0 -2.34375,0.26952 l -1.05515,0.20346 c -6.97174,1.21811 -10.1944,1.82585 -17.46139,2.36753 0.23574,-2.16408 0.4097,-4.26209 0.4097,-5.54626 0,-3.51694 -1.99128,-5.4802 -5.62363,-5.4802 -4.63028,0.0687 -5.97611,2.36753 -6.68106,11.56813 h -2.57721 c -0.87891,0 -2.16751,0 -3.3989,-0.0687 -1.22909,0 -2.46048,-0.066 -3.27988,-0.066 -3.9276,0 -5.50918,1.75715 -5.50918,6.35745 0,6.83308 3.3989,6.83308 10.25391,6.83308 1.23138,0 2.57949,0 3.92532,-0.13476 v 0.26952 c -0.11673,3.04397 -0.23346,5.88448 -0.29297,9.0632 -11.24954,6.56356 -17.45911,16.50667 -17.45911,28.07216 0,10.21526 4.628,16.03368 12.77161,16.03368 3.04871,0 5.56641,-0.67644 8.84857,-2.30148 0.99564,1.82586 2.11029,2.50229 4.10157,2.50229 4.04205,0 7.03124,-2.70575 7.03124,-6.22269 0,-1.14942 -0.23346,-2.50229 -0.76217,-4.26209 5.50918,-5.81577 11.24954,-15.28589 15.47012,-25.43245 3.68958,1.89455 5.74036,5.68101 5.74036,10.68824 0,9.53617 -6.91224,12.7149 -11.483,14.81291 l -0.11673,0.0687 c -2.46277,1.08071 -3.75138,3.24478 -3.75138,6.2227 0,3.98991 2.81296,7.30605 6.21186,7.30605 4.51126,0 21.21048,-7.1713 21.21048,-28.61383 0.11673,-11.02647 -5.0972,-19.21242 -14.12201,-22.5259 z m -14.99863,9.94311 c -1.28861,3.65435 -3.98483,8.72763 -6.68106,12.58279 -0.23346,-2.70575 -0.58594,-7.98249 -0.58594,-10.95776 2.40326,-0.81384 4.74701,-1.35287 7.267,-1.62503 z m -18.39981,8.18595 c 0.23575,4.86982 0.64545,9.73964 1.29089,14.40864 -2.22702,1.41893 -4.04434,2.09537 -5.39245,2.09537 -1.52207,0 -2.5177,-1.55633 -2.5177,-3.85516 0,-5.54626 2.98691,-8.92844 6.61926,-12.64885 z m 0,0"
     id="path8"
     inkscape:connector-curvature="0"
     style="stroke-width:0.62956339" />
</svg>
